{"glyphs":{"0":{"ha":694,"x_min":-6,"x_max":707,"o":"m 707 732 l 611 732 l 589 775 l 707 775 l 707 732 m 625 450 q 508 203 625 292 q 358 150 439 150 q 149 238 235 150 q 64 450 64 325 l 64 508 q 149 774 86 681 l 206 775 l 189 742 l 178 715 l 171 690 l 169 668 l 183 669 q 268 788 197 722 l 288 790 l 307 792 l 326 790 l 344 788 q 243 619 281 717 q 206 425 206 521 q 219 328 206 379 q 299 211 242 247 q 358 193 328 193 q 501 310 461 193 q 513 382 513 342 q 401 668 513 551 l 418 683 l 429 694 l 436 700 l 443 703 q 479 669 456 696 q 519 611 485 663 l 526 613 q 478 725 515 679 l 489 740 l 500 757 l 514 774 l 526 779 q 567 724 547 760 l 599 647 q 625 450 625 561 m 86 775 l 72 732 l -6 732 l -6 775 l 86 775 z "},"1":{"ha":889,"x_min":-17,"x_max":907,"o":"m 907 732 l -17 732 l -17 775 l 907 775 l 907 732 m 782 110 q 768 88 782 88 l 733 89 q 726 97 728 94 l 722 125 l 718 158 l 714 186 l 706 188 l 692 75 l 643 75 l 643 585 q 433 613 533 618 l 361 608 q 303 599 325 606 q 251 564 251 590 q 269 542 251 554 l 328 521 l 381 506 l 438 492 q 490 468 472 483 q 572 340 572 432 q 438 208 572 263 l 349 186 l 581 94 l 558 53 l 529 64 l 501 74 l 496 67 l 521 50 l 540 36 q 553 15 557 25 l 531 -18 l 400 35 l 268 83 l 135 122 q 63 139 108 131 l 6 150 l 8 163 l 21 200 l 28 207 l 76 200 l 76 208 l 19 228 l 40 285 l 224 228 l 307 232 q 424 283 389 244 q 439 318 439 300 q 383 375 439 344 q 319 404 360 392 l 238 431 q 174 450 213 439 l 125 476 q 93 506 108 489 q 83 535 86 518 q 233 638 83 603 q 433 660 329 660 q 564 654 492 660 q 643 640 617 650 l 643 690 l 644 699 q 657 703 653 703 l 692 704 q 700 693 699 699 l 707 665 l 713 629 q 719 597 714 618 l 728 599 l 728 644 q 738 700 728 689 l 747 711 l 782 718 l 782 110 z "},"2":{"ha":653,"x_min":-12,"x_max":671,"o":"m 671 732 l 526 732 l 526 607 l 478 607 l 464 669 l 456 669 l 443 593 l 393 593 l 347 617 q 310 626 344 619 q 260 619 275 626 q 203 592 228 615 q 178 542 179 569 q 238 471 176 492 l 274 465 q 407 507 363 465 l 450 451 q 225 325 285 419 q 206 263 206 294 q 213 229 206 243 l 238 203 q 274 185 254 190 l 317 179 q 436 249 399 179 l 443 356 l 497 356 l 513 279 l 519 279 l 535 389 l 597 389 q 585 325 586 357 l 582 213 q 583 151 582 196 q 585 101 585 107 q 597 15 589 56 l 549 17 l 526 110 l 519 110 l 513 3 l 469 3 q 449 83 457 36 l 443 186 q 232 101 358 101 q 108 140 157 101 q 58 242 58 179 q 211 417 58 369 q 172 419 182 418 q 78 463 121 426 q 36 542 36 500 q 39 568 36 558 l 51 594 l 71 618 l 99 638 q 211 672 133 663 q 260 675 240 676 l 338 671 q 388 660 368 669 l 388 732 l -12 732 l -12 775 l 388 775 l 388 789 l 443 789 l 456 718 l 464 718 l 478 803 l 526 803 l 526 775 l 671 775 l 671 732 z "},"3":{"ha":731,"x_min":0,"x_max":744,"o":"m 744 732 l 349 732 l 382 775 l 744 775 l 744 732 m 661 717 l 650 88 l 613 89 l 606 92 l 604 104 l 596 156 l 590 186 l 581 126 l 578 106 q 572 86 575 89 q 557 74 567 75 l 522 75 l 522 258 q 435 157 478 199 q 243 79 353 79 q 174 90 201 79 q 75 178 111 115 q 63 242 63 207 q 114 367 63 303 q 250 479 165 431 l 250 494 q 78 578 125 494 q 63 635 63 606 q 139 779 63 726 l 151 775 q 164 772 161 774 l 175 769 l 181 767 q 153 689 153 733 l 167 690 q 243 774 213 768 l 271 767 l 290 758 l 306 753 q 215 619 215 704 q 247 544 215 576 l 283 522 q 326 515 297 518 l 360 517 l 382 521 l 392 515 l 404 499 l 414 482 l 425 465 q 278 404 351 465 q 219 343 238 371 q 201 283 201 307 q 256 193 201 221 q 292 186 268 189 q 426 231 361 186 q 522 349 490 276 l 524 699 q 536 703 528 703 l 563 704 q 571 693 569 699 l 578 665 l 583 633 q 590 611 586 618 l 601 676 q 625 713 606 704 l 642 715 l 661 717 m 63 775 l 40 732 l 0 732 l 0 775 l 63 775 z "},"4":{"ha":847,"x_min":-14,"x_max":861,"o":"m 861 732 l 708 732 l 708 579 l 660 579 l 651 650 l 638 650 l 624 565 l 569 565 q 485 606 538 606 q 368 518 413 606 q 360 465 360 494 q 395 376 360 411 q 485 340 431 340 q 576 371 538 340 q 624 450 615 401 q 638 493 624 490 l 681 494 l 674 438 l 688 438 l 715 489 q 736 507 728 504 l 779 508 l 769 463 l 763 415 l 758 361 l 757 297 l 757 219 l 758 139 l 758 92 q 779 15 761 65 l 736 17 l 708 103 l 703 103 l 708 3 l 660 3 l 639 110 q 632 213 632 146 q 418 67 551 110 q 346 57 372 57 q 281 64 319 57 q 176 158 176 94 q 199 213 176 193 l 136 214 q 14 288 47 215 q 3 332 3 311 q 63 437 3 394 q 204 479 122 479 l 217 432 l 189 428 l 161 421 l 132 410 l 104 396 l 135 400 l 168 401 l 199 400 l 222 396 l 247 361 l 204 361 l 126 347 q 71 306 71 332 q 86 285 76 293 l 117 269 l 156 258 l 204 256 q 289 278 250 253 l 338 257 q 303 207 303 233 q 325 163 303 181 l 349 149 l 379 144 q 567 225 475 144 q 624 283 579 236 l 624 347 q 485 283 589 283 q 292 333 378 283 l 260 358 q 238 390 244 374 l 222 426 l 218 465 l 222 504 l 235 543 l 256 578 q 318 629 271 604 l 363 646 l 411 656 l 464 660 l 496 660 q 569 649 536 660 l 569 732 l -14 732 l -14 775 l 569 775 l 569 794 l 632 794 l 638 704 l 660 789 l 708 789 l 708 775 l 861 775 l 861 732 z "},"5":{"ha":794,"x_min":-14,"x_max":808,"o":"m 808 732 l 368 732 l 389 775 l 808 775 l 808 732 m 760 396 q 649 167 760 260 q 383 74 539 74 q 176 122 272 74 q 60 283 60 182 q 106 378 60 332 q 221 450 151 425 q 106 510 157 461 q 60 619 60 563 q 74 688 60 660 q 151 774 101 743 l 201 775 q 151 675 151 713 l 158 676 q 269 779 219 779 l 283 776 l 299 771 l 313 758 l 326 744 q 276 728 301 740 q 236 694 263 721 q 201 597 201 650 q 237 519 201 550 q 326 488 272 488 l 326 438 q 238 379 282 429 q 201 269 201 329 q 294 136 201 181 q 383 117 335 117 q 517 167 458 117 q 603 306 575 218 q 621 425 621 363 q 536 578 621 567 l 514 574 l 496 561 q 483 542 488 553 l 479 521 q 532 424 479 454 q 564 417 549 417 q 613 444 585 417 q 610 414 613 424 q 604 390 610 400 l 594 374 l 585 368 l 565 367 l 550 368 l 536 374 l 522 382 l 515 375 l 524 363 l 535 356 l 544 350 l 558 346 l 533 319 q 515 311 522 311 q 410 415 446 331 q 403 465 403 440 q 503 622 403 579 q 564 635 532 635 q 702 566 644 635 q 760 396 760 497 m 74 775 l 54 732 l -14 732 l -14 775 l 74 775 z "},"6":{"ha":667,"x_min":-14,"x_max":676,"o":"m 676 732 l 614 732 l 614 775 l 676 775 l 676 732 m 418 732 l -14 732 l -14 775 l 418 775 l 418 732 m 646 292 q 523 129 611 189 q 321 69 435 69 q 201 90 243 69 l 151 115 q 29 361 29 203 q 211 618 29 553 q 271 633 249 632 l 335 639 l 364 636 l 392 628 q 419 614 404 624 l 444 597 l 444 792 l 500 783 l 514 708 l 529 708 l 536 806 l 585 792 l 585 529 l 536 529 l 529 613 l 522 613 l 500 514 l 444 514 l 424 544 l 397 568 q 367 583 388 576 l 335 589 q 216 522 263 589 q 169 361 169 454 q 201 203 169 272 q 321 113 243 113 q 432 183 383 113 q 481 333 481 253 l 543 326 q 514 215 543 274 l 522 210 q 585 311 572 257 q 614 306 601 311 l 646 292 z "},"7":{"ha":729,"x_min":-12,"x_max":743,"o":"m 743 732 l 544 732 l 544 775 l 743 775 l 743 732 m 326 732 l -12 732 l -12 775 l 326 775 l 326 732 m 711 368 q 620 157 711 240 q 397 74 529 74 q 253 93 313 74 q 46 368 46 160 q 131 548 46 475 q 338 621 217 621 l 356 621 l 363 619 l 369 619 l 369 794 l 417 794 l 432 669 l 439 669 l 460 781 l 479 785 l 494 788 q 508 774 508 785 l 508 571 q 506 558 508 561 l 494 556 l 465 557 q 457 560 458 558 l 451 575 l 444 599 l 439 626 l 425 628 q 422 599 425 608 q 415 556 422 565 l 411 550 l 383 551 q 364 564 375 561 l 340 569 q 233 513 278 569 q 188 368 188 456 q 248 200 188 269 q 397 131 308 131 q 604 232 546 131 q 621 297 621 261 q 557 429 621 365 q 425 493 493 493 q 488 535 457 533 q 578 488 535 536 l 585 494 q 522 564 575 532 l 553 585 l 578 592 q 632 549 615 569 q 708 401 688 504 q 711 368 711 388 z "},"8":{"ha":674,"x_min":-14,"x_max":688,"o":"m 688 732 l 625 732 l 625 775 l 688 775 l 688 732 m 378 732 l -14 732 l -14 775 l 378 775 l 378 732 m 644 283 q 562 131 644 188 q 338 74 479 74 q 15 269 133 74 q 33 299 19 285 l 72 325 q 140 221 72 267 l 135 235 l 129 250 l 124 264 l 119 278 l 113 303 l 111 322 l 113 333 l 119 340 l 153 350 l 176 354 q 235 196 176 256 q 392 136 293 136 q 515 169 463 136 q 568 249 568 201 q 549 288 568 268 q 494 331 529 313 l 406 376 l 288 425 q 135 492 210 457 q 86 542 86 514 q 135 594 86 567 l 194 621 l 281 649 l 344 665 q 428 725 419 685 q 419 774 428 763 l 485 775 q 482 753 485 761 l 478 732 l 468 710 l 457 689 l 463 690 q 525 788 525 715 l 582 789 l 585 782 l 588 776 l 588 769 l 589 763 l 589 744 q 558 689 589 714 l 522 665 l 476 649 l 435 639 l 338 617 q 233 564 236 593 q 296 521 233 539 l 408 488 q 476 467 426 482 q 597 391 549 443 q 644 283 644 339 z "},"9":{"ha":722,"x_min":-14,"x_max":732,"o":"m 732 732 l 604 732 l 604 775 l 732 775 l 732 732 m 410 732 l -14 732 l -14 775 l 410 775 l 410 732 m 682 306 q 578 151 682 226 q 367 74 463 68 l 290 78 l 224 90 q 165 113 192 100 l 114 146 q 18 340 18 208 q 105 554 18 474 q 325 626 192 635 l 396 622 q 438 613 424 621 l 438 794 l 493 789 l 514 704 l 529 803 l 576 803 l 576 536 l 529 536 l 514 642 l 507 642 l 493 522 l 438 522 q 396 563 429 546 l 364 574 l 325 578 q 218 523 264 578 q 161 389 172 468 q 158 340 158 368 q 218 180 158 244 q 367 115 278 115 q 529 179 454 115 l 565 210 l 590 243 q 606 274 599 254 l 611 306 l 607 326 l 597 344 l 582 356 q 563 360 574 360 q 508 349 531 360 q 435 271 457 331 q 424 213 424 240 q 451 158 424 183 l 413 167 l 381 179 q 353 211 358 190 q 360 249 353 233 l 382 297 q 311 213 328 282 l 290 226 l 275 239 l 269 244 l 265 251 l 263 257 l 263 263 q 372 375 263 319 q 535 424 469 424 q 638 390 594 424 q 682 306 682 356 z "}," ":{"ha":417,"x_min":0,"x_max":0,"o":""},"!":{"ha":597,"x_min":89,"x_max":563,"o":"m 563 649 q 503 561 563 606 l 435 510 l 318 438 l 283 418 l 251 397 q 242 382 243 389 q 251 363 242 374 l 285 343 l 322 325 l 353 311 q 424 272 406 288 l 476 229 q 522 144 517 196 l 519 129 l 511 113 l 497 93 l 479 74 l 424 75 l 428 92 l 431 115 q 428 138 431 131 l 424 158 l 418 160 q 415 138 418 146 l 408 117 l 397 96 l 381 74 l 313 75 q 353 158 353 107 q 329 196 353 179 l 297 218 l 256 242 q 89 354 89 315 q 96 376 89 364 l 121 403 l 161 433 l 214 465 l 304 521 l 368 568 q 424 649 417 604 q 326 731 424 719 q 228 660 239 731 q 264 596 228 617 q 304 575 282 582 l 353 569 q 322 544 335 551 l 304 535 l 285 539 l 265 546 l 246 554 l 228 564 l 219 565 l 225 553 l 232 542 l 244 531 l 263 521 l 239 510 l 219 507 q 99 599 131 540 q 89 635 89 617 q 147 722 89 685 q 297 771 206 758 q 353 774 319 774 q 485 747 425 774 q 563 649 563 713 z "},"\"":{"ha":0,"x_min":-528,"x_max":192,"o":"m 192 -171 l 176 -194 q 161 -212 169 -206 l 147 -221 l 138 -221 q 25 -179 75 -221 l 18 -185 q 115 -250 57 -233 l 104 -261 l 93 -269 l 82 -275 l 72 -278 q -64 -192 44 -278 l -151 -122 q -361 -4 -300 -4 l -396 -8 q -443 -40 -426 -15 q -451 -67 -449 -49 q -406 -118 -451 -106 l -375 -122 q -256 -89 -297 -122 l -278 -165 l -292 -169 l -324 -171 l -376 -171 l -376 -179 q -349 -193 -367 -187 l -312 -199 q -375 -242 -325 -242 q -483 -199 -437 -242 q -528 -94 -528 -157 q -461 24 -528 -24 q -304 74 -394 72 q -79 -40 -221 75 q 192 -171 82 -171 z "},"#":{"ha":689,"x_min":0,"x_max":651,"o":"m 651 256 q 478 79 651 131 q 419 68 450 71 q 642 -24 543 -26 l 624 -51 q 597 -74 614 -65 l 588 -74 q 475 -32 525 -74 l 468 -37 q 565 -103 507 -86 q 522 -131 543 -129 q 400 -61 471 -135 q 268 79 390 -51 q 103 156 182 156 q 28 140 65 156 l 11 189 q 42 190 25 190 q 111 183 74 190 l 107 199 q 7 224 65 218 l 0 267 q 358 115 164 271 l 372 115 q 471 156 436 115 q 513 256 513 192 q 467 344 513 310 q 358 382 433 381 l 288 383 l 288 467 l 358 467 q 469 501 425 467 q 513 592 513 536 q 501 644 513 622 q 358 731 468 731 q 269 706 304 731 l 242 679 q 233 649 233 667 l 238 622 q 253 599 242 610 l 275 583 l 301 578 q 247 542 279 542 l 224 546 q 203 561 213 551 l 183 586 l 168 619 l 163 621 q 190 535 163 563 l 167 531 l 128 529 q 100 567 114 542 q 92 619 92 590 q 169 728 92 683 q 303 771 231 763 q 358 774 318 772 q 471 760 417 775 q 651 592 651 708 q 526 461 651 519 q 443 431 503 450 q 594 366 536 413 q 651 256 651 319 z "},"$":{"ha":729,"x_min":36,"x_max":658,"o":"m 658 775 q 464 511 658 656 l 421 479 q 603 256 603 367 q 456 86 603 135 q 364 74 418 74 q 221 94 289 74 q 107 176 129 122 q 99 213 99 196 q 274 444 99 318 q 36 668 114 533 l 56 688 l 90 711 l 96 694 l 106 681 l 115 668 l 132 654 l 140 656 l 133 674 l 122 711 l 121 726 l 122 735 l 126 739 l 172 763 l 197 774 q 318 540 197 632 q 356 515 332 529 q 518 774 518 628 l 565 775 l 569 754 l 571 735 l 569 714 l 565 696 l 574 697 q 608 774 608 721 l 658 775 m 503 213 q 356 389 503 299 l 307 342 l 269 299 q 238 226 243 268 q 314 124 238 153 q 364 117 339 117 q 417 124 388 117 q 503 213 494 142 z "},"%":{"ha":688,"x_min":29,"x_max":617,"o":"m 617 158 q 610 131 617 149 l 588 88 l 519 89 q 533 158 533 103 l 525 160 q 456 74 525 114 l 364 75 q 478 256 478 135 q 415 374 478 311 q 268 340 340 340 q 46 476 118 340 q 29 564 29 517 q 135 774 29 674 l 192 775 l 176 757 l 167 743 l 163 735 l 160 728 q 154 711 157 714 l 163 713 q 192 747 175 733 l 239 788 l 315 789 l 253 726 q 206 665 226 700 q 188 629 199 654 q 168 550 168 586 q 206 442 168 489 q 301 396 244 396 q 427 438 376 396 q 478 542 478 479 q 421 654 478 594 l 483 676 l 485 672 l 488 669 l 499 661 l 507 653 l 540 607 l 547 607 q 519 675 547 644 l 588 690 q 617 578 617 640 q 579 481 617 518 q 478 403 550 440 q 617 158 617 286 z "},"&":{"ha":771,"x_min":47,"x_max":711,"o":"m 711 465 q 631 201 711 314 q 396 74 539 74 q 132 244 232 74 q 47 564 47 389 q 75 774 47 696 l 138 775 l 126 733 l 124 689 l 138 690 l 154 733 l 169 767 l 183 786 q 200 793 189 790 l 250 794 q 171 493 171 704 q 221 258 171 367 q 396 122 283 122 q 540 254 489 122 q 579 465 579 354 q 563 610 579 539 q 488 717 538 717 q 435 675 447 717 l 432 649 q 471 558 432 594 q 564 521 510 521 l 522 489 l 500 479 q 467 489 486 479 l 424 521 l 418 522 q 474 465 432 481 l 438 442 l 429 438 l 424 436 q 311 560 338 488 q 304 606 307 581 q 337 701 304 658 q 419 763 369 744 q 494 774 450 774 q 658 665 596 774 q 711 465 711 574 z "},"'":{"ha":0,"x_min":-826,"x_max":-133,"o":"m -133 -82 q -236 -232 -133 -176 q -424 -278 -321 -278 q -660 -218 -553 -278 q -826 -54 -768 -158 l -786 -7 q -700 -96 -769 -69 l -696 -90 q -749 21 -749 -56 l -687 71 q -592 -136 -687 -50 q -369 -222 -497 -222 q -267 -191 -319 -222 q -215 -124 -215 -160 q -225 -103 -215 -112 l -247 -85 q -281 -72 -262 -76 l -319 -68 l -351 -71 q -385 -82 -365 -72 l -418 -99 l -451 -124 q -389 -7 -443 -53 l -343 -7 q -308 -10 -319 -7 l -282 -14 q -265 -21 -271 -17 l -258 -14 q -347 21 -268 0 l -329 33 l -314 44 l -289 51 l -271 54 q -174 14 -214 54 q -133 -82 -133 -18 z "},"(":{"ha":708,"x_min":75,"x_max":618,"o":"m 618 144 q 611 115 618 129 l 592 88 l 522 89 q 550 158 550 117 l 542 160 q 465 74 526 96 l 394 94 q 479 186 479 128 q 340 354 479 239 q 75 635 75 575 q 164 743 75 706 q 313 774 231 771 q 425 747 369 775 q 522 606 522 697 q 489 524 522 565 l 451 490 l 403 465 l 397 467 l 389 474 l 374 485 l 361 493 q 417 542 400 506 l 408 550 q 318 515 365 515 q 310 518 311 517 l 300 526 l 283 542 l 269 556 q 349 586 315 556 q 382 660 382 617 q 361 710 382 692 q 339 725 354 718 l 313 731 q 243 699 275 731 l 221 663 q 214 619 214 642 q 422 360 214 531 q 618 144 618 200 z "},")":{"ha":674,"x_min":54,"x_max":629,"o":"m 629 396 q 546 172 629 263 q 339 82 463 82 q 135 173 217 82 q 54 396 54 264 q 131 640 54 521 q 335 774 215 774 q 397 744 375 774 q 229 617 290 744 q 181 396 181 514 q 193 278 181 336 q 274 135 214 179 q 335 115 300 115 q 469 190 415 115 q 524 368 524 265 q 460 565 524 481 q 307 649 397 649 q 363 703 339 700 q 468 649 403 703 l 474 656 q 397 725 454 704 l 419 735 l 446 739 q 521 692 485 725 q 629 396 629 590 z "},"*":{"ha":681,"x_min":67,"x_max":592,"o":"m 592 654 q 297 528 424 626 q 151 256 151 414 q 185 167 151 208 q 269 131 221 131 q 479 292 418 131 l 486 288 l 499 276 l 511 263 l 522 256 q 497 206 510 225 q 479 186 490 190 l 479 179 q 550 235 515 186 l 556 231 l 563 224 l 575 207 l 585 199 q 459 107 544 140 q 269 74 374 74 q 125 143 183 74 q 67 311 67 213 q 178 595 67 468 q 479 774 290 722 l 486 771 l 496 763 l 510 744 l 522 731 q 431 675 464 711 l 438 669 l 506 693 q 556 703 522 699 l 568 690 l 592 654 z "},"+":{"ha":0,"x_min":-189,"x_max":-51,"o":"m -51 958 q -57 932 -51 944 l -69 910 l -93 894 l -119 890 l -146 894 q -183 932 -169 903 l -189 958 q -168 1007 -189 989 q -146 1022 -161 1015 l -119 1028 q -57 985 -72 1028 l -51 958 z "},",":{"ha":190,"x_min":58,"x_max":196,"o":"m 196 118 q 189 60 196 79 q 100 -62 181 -8 l 79 -35 q 121 69 121 -18 l 94 74 q 63 113 72 83 l 58 140 l 63 167 q 100 203 71 192 l 128 208 q 176 182 153 214 l 190 153 l 196 118 z "},"-":{"ha":431,"x_min":65,"x_max":363,"o":"m 363 65 l 314 25 l 257 89 l 250 89 l 254 74 l 265 53 l 272 39 l 286 15 l 235 -4 q 111 201 150 93 l 92 256 l 79 310 l 71 363 l 68 417 q 81 535 65 465 q 264 836 118 711 l 349 838 q 167 488 167 669 q 363 65 167 231 z "},".":{"ha":461,"x_min":322,"x_max":461,"o":"m 461 717 l 450 88 l 413 89 l 406 92 l 404 104 l 396 156 l 390 186 l 378 106 q 357 74 374 76 l 322 75 l 324 699 q 336 703 328 703 l 363 704 q 371 693 369 699 l 378 665 l 383 633 q 390 611 386 618 l 401 676 q 425 713 406 704 l 442 715 l 461 717 z "},"/":{"ha":618,"x_min":-6,"x_max":629,"o":"m 629 732 l 514 732 l 486 775 l 629 775 l 629 732 m 206 775 l 178 732 l -6 732 l -6 775 l 206 775 m 597 131 l 589 108 l 581 88 l 567 64 q 554 57 564 60 l 535 64 l 436 122 l 436 110 q 465 78 443 99 l 521 43 l 513 31 l 504 19 l 497 11 l 492 10 q 231 154 379 49 q 39 306 174 194 l 51 322 l 72 356 l 79 360 l 88 357 l 100 349 l 122 332 l 132 324 l 143 318 l 150 326 l 121 369 l 158 411 q 282 339 224 339 q 378 384 342 339 q 415 493 415 429 q 400 557 415 522 q 360 614 390 579 l 332 639 l 317 649 l 303 658 q 275 671 296 664 l 249 675 q 222 672 232 675 l 199 668 l 224 693 l 250 721 l 260 728 l 268 731 q 374 689 306 731 l 382 697 l 357 722 l 317 753 l 349 772 l 368 779 q 492 686 444 756 q 540 535 540 617 q 461 365 540 433 q 268 297 382 297 q 597 131 468 131 z "},":":{"ha":625,"x_min":-19,"x_max":665,"o":"m 639 732 l 475 732 l 447 775 l 639 775 l 639 732 m 665 481 q 546 403 601 453 l 532 474 l 574 507 l 610 533 l 640 551 l 665 564 l 665 481 m 183 775 l 133 732 l -14 732 l -14 775 l 183 775 m 504 118 l 475 75 l 393 132 l 385 124 l 456 58 q 414 24 436 24 l -19 307 l -3 346 q 8 360 3 358 l 99 307 l 99 319 l 36 369 l 78 411 q 197 340 163 340 q 318 385 263 340 q 367 460 351 411 q 371 493 371 472 q 310 614 371 550 l 279 639 l 249 658 l 217 671 l 189 675 l 183 675 l 179 678 l 175 682 l 219 724 q 246 739 232 736 q 272 728 263 733 l 328 696 l 336 697 l 315 721 l 267 753 q 350 779 296 774 q 501 592 478 718 q 504 556 504 576 q 422 382 504 453 q 224 311 339 311 l 504 118 z "},";":{"ha":896,"x_min":-14,"x_max":910,"o":"m 910 732 l 479 732 l 449 775 l 910 775 l 910 732 m 810 106 q 807 89 813 94 q 796 83 801 83 l 763 85 q 754 93 756 90 l 750 122 q 747 157 750 140 l 743 182 l 721 71 l 672 71 l 672 472 l 647 460 q 619 444 636 457 l 589 422 l 554 396 l 540 458 l 625 524 l 672 556 l 672 681 l 679 689 q 693 693 683 693 l 721 694 q 732 683 729 689 l 739 658 q 742 642 739 647 q 744 625 742 631 l 746 611 l 749 597 l 750 618 l 757 671 l 761 692 l 771 700 l 792 704 l 810 707 l 810 106 m 206 775 l 157 732 l -14 732 l -14 775 l 206 775 m 513 114 l 485 71 l 403 128 l 396 119 l 465 56 q 424 21 446 21 l -6 301 l 0 314 l 4 331 l 8 340 l 14 347 l 18 351 l 22 353 l 113 301 l 113 313 l 50 363 l 92 404 q 161 350 114 385 q 210 333 190 333 q 369 429 328 333 q 382 485 382 458 q 324 607 382 549 q 201 665 265 665 l 196 665 l 192 668 l 188 672 l 232 714 q 257 729 244 726 q 283 718 274 724 l 339 686 l 347 688 l 326 708 l 278 743 q 361 768 307 763 q 510 582 486 704 q 513 547 513 568 q 431 375 513 444 q 236 306 350 306 l 513 114 z "},"<":{"ha":688,"x_min":71,"x_max":611,"o":"m 611 589 q 560 494 611 542 q 429 417 508 447 q 386 394 399 406 l 353 367 q 325 300 329 340 l 272 301 l 272 332 q 286 379 276 353 q 368 471 308 443 q 471 611 471 519 q 439 680 471 651 q 361 715 407 708 q 243 631 278 715 q 235 579 235 610 l 235 565 l 236 556 l 217 557 l 197 564 l 178 572 l 160 583 q 182 651 160 613 l 182 660 q 132 597 156 650 l 90 619 q 71 639 76 629 q 361 763 136 760 q 542 717 474 764 q 603 654 589 683 q 611 589 611 636 m 375 154 q 328 75 375 103 l 300 69 q 221 121 251 69 l 215 154 q 267 217 215 196 l 300 222 q 340 211 318 225 q 369 181 363 197 l 375 154 z "},"=":{"ha":313,"x_min":118,"x_max":257,"o":"m 257 144 q 238 94 257 119 l 215 79 l 189 74 q 139 92 157 74 l 124 115 l 118 144 l 122 171 q 160 207 131 196 l 189 213 q 215 207 204 215 q 251 171 242 199 l 257 144 z "},">":{"ha":847,"x_min":-7,"x_max":861,"o":"m 861 732 l 551 732 l 532 775 l 861 775 l 861 732 m 761 718 l 757 93 q 747 88 750 88 l 711 89 l 701 94 l 694 117 q 692 150 694 138 l 690 193 l 685 194 l 671 75 l 619 75 l 619 271 l 235 75 l 208 118 l 496 264 q 314 354 386 354 q 215 325 281 354 l 63 257 l 33 299 l 46 299 l 63 303 l 81 308 l 104 318 l 104 326 l 82 322 q 56 319 65 322 l 31 318 l 11 318 l 7 321 l 3 329 l 0 347 l -7 382 l 14 378 l 38 376 q 60 374 50 375 l 82 374 q 303 433 206 374 q 418 619 418 504 q 411 658 418 643 q 385 703 407 682 q 342 725 364 725 q 238 635 267 725 q 229 578 229 608 q 263 503 229 536 q 342 479 293 479 q 257 431 304 438 l 244 435 l 226 450 l 217 460 l 200 482 l 194 493 l 186 494 q 215 425 186 460 l 194 421 l 168 414 q 153 411 158 414 l 144 410 q 76 578 76 478 q 156 717 76 661 q 342 774 235 774 q 422 763 386 774 q 551 619 551 724 q 435 442 551 531 q 354 396 400 415 q 499 332 421 383 q 551 292 519 318 l 619 326 l 619 690 q 635 703 622 703 l 671 704 q 678 699 676 701 l 683 686 l 689 638 l 697 597 l 704 599 l 706 611 l 708 628 l 708 646 l 711 665 q 725 711 711 708 l 761 718 z "},"?":{"ha":868,"x_min":-14,"x_max":886,"o":"m 886 732 l 529 732 l 501 775 l 886 775 l 886 732 m 838 410 q 773 242 838 311 q 614 172 708 172 q 557 213 590 172 q 671 257 624 213 q 718 368 718 301 q 680 483 718 436 q 585 529 642 529 q 515 507 547 529 q 385 383 490 436 q 208 325 304 343 q 501 172 374 196 q 461 122 486 122 q 396 150 438 122 l 396 138 l 397 132 l 401 129 l 406 125 l 414 121 q 431 114 415 119 l 461 101 l 439 81 l 424 74 q 192 178 282 124 q 140 207 160 197 q 4 306 92 232 l 28 342 q 47 354 39 354 q 61 344 57 350 l 89 318 l 96 326 l 69 360 q 61 382 61 371 l 89 426 q 200 368 132 368 q 324 416 274 368 q 375 535 375 464 q 271 664 375 626 q 208 675 240 675 q 182 672 192 675 l 158 668 l 183 699 l 210 732 l 219 742 l 229 744 q 333 711 269 744 l 342 718 q 276 767 324 747 l 297 786 l 314 803 l 319 806 l 328 807 q 397 769 358 797 q 522 564 496 700 q 607 603 557 593 q 642 606 621 606 q 715 590 683 606 q 805 520 772 569 q 838 410 838 471 m 165 775 l 138 732 l -14 732 l -14 775 l 165 775 z "},"@":{"ha":660,"x_min":0,"x_max":608,"o":"m 608 263 q 589 219 603 249 l 568 186 l 546 165 q 524 158 539 161 l 496 160 q 447 169 464 161 l 419 179 l 419 174 q 518 131 454 131 q 447 74 482 81 l 424 76 l 393 88 l 303 132 l 215 172 q 0 226 97 226 l 49 299 l 110 271 l 118 279 l 63 333 l 96 390 l 121 364 l 149 346 l 175 335 l 203 332 q 285 354 250 332 q 326 381 308 365 l 371 418 q 453 592 453 510 q 422 686 453 647 q 349 725 397 725 q 257 635 268 725 q 300 542 257 563 l 276 538 q 254 535 263 538 l 229 535 q 189 619 196 571 l 181 621 q 194 542 181 558 l 132 536 q 104 619 104 567 q 250 763 104 725 q 349 774 293 774 q 536 722 458 774 q 565 697 553 714 q 589 665 575 689 l 603 629 l 608 592 q 478 390 608 476 q 243 297 379 325 q 489 213 421 213 q 608 263 543 213 z "},"A":{"ha":486,"x_min":-15,"x_max":521,"o":"m 499 732 l -15 732 l -15 775 l 499 775 l 499 732 m 521 285 q 393 142 472 196 q 229 88 314 88 q 89 151 144 88 q 33 306 33 214 q 153 564 33 447 l 129 593 l 172 628 l 200 599 q 382 668 275 668 q 476 624 438 668 q 515 521 515 581 q 506 507 514 517 l 486 493 l 482 497 l 479 503 q 472 519 476 514 l 467 533 l 458 546 l 453 556 l 439 551 l 449 533 l 454 517 l 457 499 l 458 479 l 454 465 l 443 454 l 428 446 l 410 444 l 406 453 l 404 461 l 396 494 l 383 535 q 339 590 368 569 q 311 597 329 594 q 229 550 261 597 l 396 307 l 354 271 l 193 481 l 188 463 q 178 429 183 447 l 172 354 q 182 279 169 324 q 271 179 208 179 q 425 247 354 179 q 521 417 496 314 l 521 285 z "},"B":{"ha":736,"x_min":-14,"x_max":750,"o":"m 750 732 l 454 732 l 454 775 l 750 775 l 750 732 m 263 732 l -14 732 l -14 775 l 263 775 l 263 732 m 664 106 q 650 83 664 83 l 615 85 l 608 89 l 604 104 l 597 136 q 594 154 597 150 l 588 156 l 574 71 l 524 71 l 524 251 q 263 113 431 113 q 117 151 171 113 l 92 174 l 75 199 l 64 225 l 61 257 q 106 360 56 314 q 226 417 157 407 q 57 496 104 425 q 42 542 42 518 q 85 631 42 590 q 207 665 133 665 q 254 663 231 665 l 290 658 l 290 769 l 339 778 l 353 694 l 358 694 l 372 783 l 428 792 l 428 613 q 415 600 428 604 l 381 597 l 367 660 l 358 660 l 344 585 l 296 585 q 235 617 271 617 q 207 611 219 617 l 185 599 l 169 578 l 165 554 q 258 476 165 501 l 317 471 l 339 471 q 421 493 367 476 l 428 444 q 208 338 253 408 q 193 292 193 314 q 201 251 193 272 q 269 194 219 218 q 317 188 294 188 q 417 217 376 188 q 524 361 482 249 l 524 688 l 532 694 l 565 694 q 574 688 572 690 l 581 671 l 586 649 l 594 625 l 601 626 l 603 644 l 606 669 l 610 690 q 621 700 614 699 l 632 703 q 640 706 639 704 l 650 707 l 664 707 l 664 106 z "},"C":{"ha":1118,"x_min":-14,"x_max":1132,"o":"m 1132 732 l -14 732 l -14 775 l 1132 775 l 1132 732 m 1121 179 q 925 101 1074 101 q 735 196 793 101 q 721 256 721 226 l 721 274 q 749 338 721 306 q 819 388 778 371 l 808 401 l 799 418 l 789 438 l 783 458 l 644 389 l 644 110 l 640 93 q 631 88 633 88 l 596 89 l 589 92 l 588 104 l 579 156 l 574 186 l 554 75 l 504 75 l 504 313 l 113 89 l 78 138 l 239 236 q 358 465 358 356 q 351 500 358 488 q 308 549 346 528 q 279 556 301 553 q 181 510 218 556 q 144 399 144 465 l 144 385 l 147 368 l 119 382 l 78 410 l 71 425 q 83 463 71 439 l 121 515 l 113 522 q 42 436 74 506 l 14 508 q 215 651 85 628 q 251 654 231 654 q 366 599 319 654 q 413 465 413 544 q 331 283 413 383 l 504 389 l 504 690 q 518 703 507 701 l 540 704 q 551 694 549 699 l 561 669 l 565 632 l 568 583 l 574 585 l 579 631 l 583 671 q 603 711 586 703 l 631 718 q 644 696 644 711 l 644 446 l 769 517 l 764 543 l 763 569 l 764 594 q 769 619 764 607 l 819 642 l 815 626 l 814 611 l 815 593 l 819 578 l 832 579 q 860 660 832 625 l 939 676 q 897 592 897 643 l 897 557 q 900 519 897 533 l 913 460 q 960 382 924 408 q 869 335 906 368 q 832 263 832 301 q 872 188 832 218 q 965 158 911 158 l 1000 163 l 1035 175 l 1068 196 q 1099 226 1082 204 l 1115 201 l 1121 179 z "},"D":{"ha":590,"x_min":8,"x_max":601,"o":"m 582 732 l 504 732 l 504 775 l 582 775 l 582 732 m 217 732 l 8 732 l 8 775 l 203 775 l 217 732 m 601 460 q 576 463 585 460 l 560 464 l 554 464 l 549 465 l 542 465 l 497 461 q 463 450 479 460 q 404 203 463 315 q 210 65 333 65 q 91 110 139 65 q 43 221 43 154 q 321 465 43 383 q 253 758 321 663 l 293 774 l 321 779 q 372 660 358 735 l 378 661 l 379 669 l 379 682 q 357 774 379 732 l 361 778 l 367 782 l 407 788 l 440 793 l 451 751 l 458 694 l 461 613 l 463 501 l 478 506 l 497 510 l 542 513 l 567 513 l 582 510 l 601 507 l 601 460 m 321 283 l 321 411 q 182 242 182 361 l 186 197 q 253 131 197 139 q 301 174 283 136 l 315 222 l 321 283 z "},"E":{"ha":583,"x_min":53,"x_max":614,"o":"m 597 732 l 481 732 l 458 775 l 597 775 l 597 732 m 614 522 l 592 521 l 558 517 l 538 513 l 517 510 l 472 501 q 425 240 472 365 q 249 74 363 74 q 110 119 167 74 q 53 235 53 165 q 132 403 53 326 q 339 515 211 479 q 310 707 339 622 q 289 761 301 732 q 243 788 272 788 q 207 763 221 788 l 196 735 l 193 703 q 260 603 188 639 q 303 596 274 599 l 313 596 l 319 597 l 265 561 q 235 550 249 553 q 164 619 199 550 q 161 611 163 613 l 161 604 q 182 549 161 578 q 193 535 189 539 l 172 525 l 154 519 q 138 517 143 519 l 124 515 q 78 554 96 515 l 58 596 l 53 635 q 124 785 53 725 q 297 844 194 844 q 425 733 374 844 q 472 556 464 649 l 493 560 l 515 564 l 535 567 l 556 571 l 589 575 l 614 578 l 614 522 m 354 332 l 347 474 q 193 269 193 422 q 269 131 193 143 q 347 251 328 135 q 354 332 356 301 z "},"F":{"ha":0,"x_min":-781,"x_max":56,"o":"m 56 1068 l 19 1033 l -67 1069 l -72 1061 l 13 1006 l -22 971 q -189 1054 -93 1054 q -267 1020 -233 1054 q -300 942 -300 986 q -211 839 -300 865 q -154 832 -187 832 l -193 799 l -186 796 l -208 785 l -232 764 q -244 767 -239 765 l -250 764 l -297 764 q -781 1018 -615 879 l -735 1061 l -644 1000 l -637 1006 l -700 1083 l -622 1111 q -353 879 -503 969 q -362 942 -362 908 q -309 1063 -362 1015 q -175 1110 -256 1110 l -156 1110 q 56 1068 -10 1110 z "},"G":{"ha":528,"x_min":-14,"x_max":560,"o":"m 542 732 l -14 732 l -14 775 l 542 775 l 542 732 m 560 549 l 544 549 l 522 551 l 510 551 l 499 553 l 479 553 q 262 469 351 553 q 172 264 172 385 q 200 163 172 207 q 271 113 228 118 q 338 143 310 113 q 365 215 365 174 q 353 275 365 243 q 235 389 311 379 l 313 429 l 351 392 q 374 361 368 375 q 332 451 374 413 l 350 461 l 360 465 q 456 364 426 432 q 478 278 478 313 q 402 119 478 185 q 221 54 326 54 q 93 116 146 54 q 40 264 40 178 q 186 519 40 421 q 479 606 314 606 l 485 606 l 494 604 l 518 601 l 560 597 l 560 549 z "},"H":{"ha":625,"x_min":-14,"x_max":672,"o":"m 639 732 l -14 732 l -14 775 l 639 775 l 639 732 m 672 486 q 624 483 640 486 q 550 475 575 483 l 521 465 q 567 401 540 449 q 578 364 576 385 l 582 319 q 503 137 582 211 q 313 63 425 63 q 206 90 254 63 q 56 296 100 151 q 36 443 36 360 l 39 450 l 54 461 l 71 472 l 83 479 l 88 407 q 103 361 89 378 q 125 507 103 479 l 174 549 l 165 496 l 164 442 q 221 210 160 300 q 286 140 251 164 q 367 118 326 118 q 432 156 407 118 q 457 250 457 194 q 422 360 457 315 q 325 417 388 406 l 325 472 q 672 542 488 542 l 672 486 z "},"I":{"ha":646,"x_min":15,"x_max":672,"o":"m 663 732 l 574 732 l 560 775 l 663 775 l 663 732 m 672 550 q 483 515 590 550 l 478 571 q 672 611 596 611 l 672 550 m 600 425 q 567 322 574 358 q 554 213 553 249 l 556 183 l 558 149 l 564 103 l 574 43 l 572 39 l 569 36 l 565 33 l 551 28 l 532 24 l 519 42 l 511 64 l 506 88 l 504 115 l 497 110 l 497 76 q 511 8 497 28 l 469 3 q 421 256 421 49 q 325 174 389 207 l 264 151 q 197 144 225 144 q 31 229 79 144 q 15 283 15 256 q 94 401 15 336 q 128 426 114 418 l 211 479 q 292 531 233 493 q 393 642 357 574 q 407 689 407 668 q 373 762 407 731 q 294 793 339 793 q 215 758 247 793 q 183 674 183 724 q 244 567 183 608 l 288 549 l 253 524 q 232 515 242 515 l 218 518 l 190 539 l 182 547 l 175 556 l 169 564 l 161 557 q 189 507 171 522 l 169 497 l 154 493 q 43 622 75 540 l 36 653 l 36 674 q 143 806 36 757 q 322 843 226 843 q 406 832 378 843 q 529 756 490 814 q 546 703 546 731 q 518 632 546 674 q 497 607 513 624 l 439 554 q 285 456 374 517 q 208 378 242 426 q 175 297 175 331 l 179 263 q 213 213 186 231 l 239 207 q 370 266 319 207 q 421 410 421 325 l 492 411 l 493 365 q 497 339 493 343 l 504 340 l 518 390 q 546 431 528 425 l 588 432 l 593 429 l 597 428 l 600 425 z "},"J":{"ha":465,"x_min":-14,"x_max":528,"o":"m 479 732 l -14 732 l -14 775 l 479 775 l 479 732 m 528 342 q 411 157 486 226 q 250 88 336 88 q 100 156 160 88 q 40 325 40 224 q 139 569 40 472 q 389 668 238 665 q 483 624 444 669 q 522 521 522 579 l 518 510 l 503 493 l 494 501 l 483 519 l 471 539 l 460 556 l 451 551 l 468 514 l 474 479 q 464 468 468 471 l 418 451 q 410 463 411 457 l 401 496 l 389 535 q 313 597 371 589 q 208 504 246 597 q 179 354 179 432 q 253 199 179 239 q 299 186 276 186 q 408 233 357 186 q 488 360 460 281 l 528 342 z "},"K":{"ha":396,"x_min":-14,"x_max":460,"o":"m 410 732 l 313 732 l 333 775 l 410 775 l 410 732 m 53 775 l 33 732 l -14 732 l -14 775 l 53 775 m 460 326 q 384 201 444 253 q 249 150 324 150 q 90 256 151 150 q 39 450 39 344 q 104 767 39 656 l 149 776 l 172 779 l 144 724 q 138 689 138 706 l 151 690 q 229 779 185 757 l 251 790 l 283 800 l 299 801 q 194 450 194 669 q 218 319 194 382 q 306 235 250 235 q 369 264 333 235 l 397 297 q 418 340 410 317 l 460 326 z "},"L":{"ha":326,"x_min":-312,"x_max":340,"o":"m 340 732 l -14 732 l -14 775 l 190 775 l 176 785 l 147 814 l 133 832 l 106 869 l 79 913 q 15 994 49 963 q -10 1015 7 1003 q -117 1053 -58 1053 q -199 994 -172 1053 q -207 963 -204 982 q -174 877 -207 911 q -89 843 -140 843 l -107 833 l -126 822 l -137 817 l -144 815 l -162 822 l -201 843 q -187 815 -197 828 l -167 801 l -211 781 q -285 835 -254 793 q -306 876 -292 844 q -312 921 -312 900 q -273 1026 -312 979 q -165 1096 -233 1074 q -75 1110 -126 1108 q 33 1081 -14 1111 q 111 1025 69 1065 q 136 997 121 1014 l 189 940 q 242 899 208 919 q 338 864 297 864 q 281 815 322 815 q 249 826 269 815 l 199 864 l 190 865 q 247 793 193 833 l 213 775 l 340 775 l 340 732 m 247 717 l 244 94 q 239 89 242 89 l 232 88 l 199 89 l 189 92 l 182 107 l 178 143 l 176 207 l 169 208 l 156 75 l 107 75 l 107 697 l 114 704 l 150 704 q 161 694 158 699 l 169 672 l 174 639 l 176 597 l 185 599 l 188 624 l 190 663 q 194 692 192 683 q 210 711 199 708 l 228 715 l 247 717 z "},"M":{"ha":257,"x_min":44,"x_max":185,"o":"m 185 606 q 164 554 185 575 l 142 539 q 115 535 131 535 l 88 539 q 64 554 75 543 l 49 578 l 44 606 l 49 632 q 86 668 57 657 l 115 674 q 179 631 156 682 l 185 606 m 185 144 q 164 93 185 114 l 142 78 q 115 74 131 74 q 65 92 83 74 l 50 115 l 44 144 l 49 171 q 86 207 57 196 l 115 213 q 179 169 156 221 l 185 144 z "},"N":{"ha":549,"x_min":-14,"x_max":594,"o":"m 563 732 l -14 732 l -14 775 l 563 775 l 563 732 m 594 472 l 428 335 l 386 376 q 349 510 386 450 q 261 569 313 569 q 181 526 211 569 q 151 417 151 482 q 219 258 151 328 q 392 168 286 189 l 349 136 l 325 126 l 314 128 l 294 136 l 254 161 l 249 156 q 296 104 265 122 l 275 88 l 263 76 l 254 71 l 249 69 q 47 361 47 190 q 125 549 47 474 q 317 625 203 625 q 378 611 346 628 q 488 524 449 583 q 504 471 504 497 l 594 543 l 594 472 z "},"O":{"ha":667,"x_min":-14,"x_max":681,"o":"m 681 732 l 628 732 l 628 775 l 681 775 l 681 732 m 399 732 l -14 732 l -14 775 l 399 775 l 399 732 m 663 22 l 635 -28 l 572 8 l 567 -7 l 635 -54 l 600 -96 l 18 142 l 46 189 l 101 169 l 110 175 l 39 217 l 68 265 l 294 175 l 346 175 l 381 182 q 488 238 451 196 q 503 278 503 254 q 449 333 503 303 l 385 360 l 299 386 q 214 414 258 399 q 88 513 89 457 q 129 586 86 550 q 176 615 154 607 l 239 639 l 328 664 l 385 685 q 440 735 438 704 l 435 764 l 503 764 q 497 732 503 749 l 483 700 l 489 701 q 539 776 539 724 l 586 778 q 600 763 600 775 l 600 722 q 560 678 600 697 l 514 656 l 461 639 l 382 618 l 333 607 q 239 556 244 586 q 322 503 239 529 l 363 490 l 436 471 q 517 443 475 461 q 626 369 600 408 q 642 333 639 354 q 563 187 642 247 q 379 126 485 126 l 663 22 z "},"P":{"ha":660,"x_min":-14,"x_max":674,"o":"m 674 732 l 332 732 l 360 775 l 674 775 l 674 732 m 613 521 q 571 425 613 478 q 471 338 529 372 q 403 311 440 319 l 332 369 q 488 479 475 369 q 411 660 488 583 l 460 690 l 486 657 q 507 619 496 644 l 515 621 l 511 665 q 501 696 510 683 l 542 718 q 613 521 613 636 m 81 775 l 54 732 l -14 732 l -14 775 l 81 775 m 613 38 q 552 -82 613 -28 q 389 -165 492 -136 q 374 -158 381 -165 l 360 -136 q 417 -108 386 -136 l 417 -94 l 401 -101 l 382 -108 l 358 -112 l 332 -117 l 306 -81 q 297 -60 297 -69 l 300 -54 l 306 -53 l 313 -53 q 460 15 411 -53 q 474 57 474 35 q 411 149 474 94 q 336 206 372 183 l 235 269 q 103 381 140 329 l 81 411 l 67 444 l 57 475 l 54 507 q 64 610 51 540 q 193 843 90 754 l 250 838 q 222 808 236 828 l 207 774 l 221 775 q 269 821 238 803 q 297 836 276 824 l 346 831 l 354 822 l 353 817 l 347 810 l 343 806 l 311 778 l 292 758 q 192 610 236 703 q 158 479 158 539 q 260 318 158 410 q 332 269 274 306 l 456 193 l 538 138 q 613 38 606 92 z "},"Q":{"ha":660,"x_min":-10,"x_max":660,"o":"m 660 732 l -10 732 l -10 775 l 660 775 l 660 732 m 601 101 q 600 90 603 96 l 588 88 l 553 89 l 543 94 l 536 115 l 533 149 l 533 199 l 525 200 l 511 75 l 463 75 l 463 565 l 378 565 q 196 419 240 536 q 182 346 182 383 q 267 222 182 260 q 321 213 296 213 q 274 144 294 144 q 242 153 265 144 l 190 179 l 182 174 q 253 117 201 133 l 221 94 q 196 88 213 90 q 53 239 96 124 q 43 311 43 281 q 110 467 43 396 q 281 564 178 538 l 43 565 l 43 621 l 463 621 l 463 690 l 464 699 q 476 703 468 703 l 504 704 q 511 699 510 701 l 517 686 l 525 638 l 533 597 l 539 607 l 542 628 l 546 665 l 551 697 q 560 711 553 708 l 569 713 l 581 715 l 586 715 l 592 717 l 597 717 l 601 101 z "},"R":{"ha":424,"x_min":-36,"x_max":485,"o":"m 438 732 l -36 732 l -36 775 l 438 775 l 438 732 m 485 285 q 388 142 463 196 q 218 88 314 88 q 119 137 160 88 q 79 256 79 186 q 194 458 79 357 q 275 515 224 483 l 275 531 l 114 476 q 31 458 72 463 l 25 460 l 22 468 l 19 482 l 17 507 l 33 507 q 82 515 53 507 q 100 521 86 517 l 100 536 l 46 543 l 18 549 q 8 556 10 550 l 17 607 q 422 654 244 607 q 436 647 431 654 l 442 635 l 442 593 q 286 458 346 536 q 226 311 226 381 q 250 226 226 253 q 308 193 272 193 q 450 311 406 193 l 485 285 z "},"S":{"ha":792,"x_min":-14,"x_max":843,"o":"m 806 732 l -14 732 l -14 775 l 806 775 l 806 732 m 843 564 l 807 438 q 724 346 765 438 l 689 240 l 661 101 l 657 96 l 653 92 l 649 89 l 619 89 l 610 94 l 601 117 l 594 140 l 590 158 l 585 124 l 583 110 l 574 82 q 563 74 569 74 l 521 75 l 521 375 q 399 188 479 260 q 226 117 319 117 q 86 176 142 117 q 31 325 31 236 q 133 567 31 460 q 367 675 235 675 q 485 593 435 675 q 514 535 501 567 l 478 508 l 475 521 l 465 536 l 450 550 l 429 564 l 436 550 l 440 532 l 442 508 l 443 479 l 396 451 q 297 592 378 579 q 156 463 194 592 q 143 382 143 421 q 213 238 143 289 q 254 226 228 229 q 422 302 351 226 q 521 507 493 378 l 522 699 q 535 703 531 703 l 569 704 q 576 694 575 699 l 581 672 l 585 643 l 590 619 l 597 621 l 601 644 l 606 671 l 614 699 q 625 711 617 710 l 661 718 l 661 279 q 717 453 678 374 q 843 564 771 564 z "},"T":{"ha":417,"x_min":-14,"x_max":439,"o":"m 431 732 l -14 732 l -14 775 l 431 775 l 431 732 m 439 536 q 269 479 349 519 q 161 354 161 424 q 258 144 161 229 l 279 126 l 286 117 l 281 111 l 269 106 l 257 100 l 244 93 l 217 114 l 192 135 l 171 158 l 153 186 l 139 188 q 201 88 168 107 l 190 82 l 182 76 l 168 68 l 161 65 q 79 143 113 92 q 58 179 78 146 q 21 346 21 265 q 190 515 21 439 q 439 592 299 564 l 439 536 z "},"U":{"ha":542,"x_min":-14,"x_max":556,"o":"m 556 732 l 481 732 l 438 775 l 556 775 l 556 732 m 168 775 l 124 732 l -14 732 l -14 775 l 168 775 m 501 513 q 420 278 501 375 q 218 182 339 182 q 133 197 168 182 q 21 317 56 231 q 4 403 4 358 l 10 415 l 31 433 l 72 465 q 94 382 72 436 l 100 383 q 122 485 100 469 q 160 507 135 497 l 225 533 q 178 472 189 508 q 165 433 169 457 l 163 389 q 171 332 161 364 q 233 246 189 274 q 279 236 258 236 q 401 349 369 236 q 411 417 411 383 q 350 601 411 525 q 197 679 289 676 l 142 681 q 225 735 194 733 q 321 693 257 736 q 297 730 308 715 q 279 749 286 744 l 313 758 l 335 763 q 444 683 400 739 q 499 556 488 626 q 501 513 501 538 z "},"V":{"ha":917,"x_min":-14,"x_max":960,"o":"m 931 732 l 544 732 l 517 775 l 931 775 l 931 732 m 960 397 q 844 226 925 286 q 793 201 822 210 q 701 74 771 122 q 544 26 632 26 q 224 142 414 26 q 147 190 168 176 q -10 314 88 233 l -4 319 l 0 328 q 3 336 1 335 l 17 357 l 25 361 l 38 357 l 60 344 l 82 329 l 101 319 l 107 335 l 39 397 l 94 444 q 199 375 149 375 q 272 386 243 375 q 392 542 392 432 q 381 593 392 571 q 310 667 363 646 q 253 679 278 679 q 222 676 232 679 l 199 672 l 214 690 l 233 706 l 253 718 l 275 729 q 406 679 347 729 l 397 704 l 385 726 l 365 743 q 343 757 358 751 l 389 775 l 421 782 q 522 649 493 736 q 531 597 531 624 q 429 400 531 481 q 190 319 328 319 q 614 126 428 126 l 661 131 q 703 146 681 132 q 751 201 742 169 l 729 197 l 704 196 q 556 288 604 190 q 544 347 544 317 q 628 588 544 489 q 835 686 711 686 q 900 657 879 686 q 924 624 915 644 l 939 583 l 936 569 q 931 556 935 560 l 919 540 l 906 526 q 889 575 901 554 q 864 603 882 592 q 878 513 878 585 l 874 504 l 863 493 l 847 481 l 835 471 l 836 486 l 838 497 q 817 568 838 542 q 765 597 804 592 q 728 582 743 597 q 679 483 696 558 q 669 403 669 440 q 697 325 669 358 q 765 292 725 292 q 869 338 807 292 q 960 465 926 390 l 960 397 m 233 775 l 185 732 l -14 732 l -14 775 l 233 775 z "},"W":{"ha":500,"x_min":3,"x_max":492,"o":"m 492 313 q 293 103 454 157 q 196 89 251 89 q 65 126 113 89 q 17 226 17 163 q 226 444 17 339 l 179 463 q 56 544 110 489 q 3 649 3 599 q 92 779 3 729 q 254 821 167 821 q 367 783 319 821 q 415 689 415 744 l 413 668 l 406 649 q 392 628 401 638 l 375 607 q 306 556 339 571 q 268 542 301 554 l 261 544 l 254 553 l 246 567 l 240 583 q 317 626 290 583 l 317 636 q 226 606 274 606 q 183 649 199 606 q 199 646 193 649 l 210 646 q 296 693 268 646 q 303 725 300 704 l 299 740 q 289 754 297 749 l 274 764 l 254 767 q 174 731 207 767 q 142 649 142 696 q 217 499 142 544 q 268 479 231 490 q 290 472 283 476 l 310 465 l 317 461 l 321 458 l 324 454 l 325 450 q 282 417 325 431 q 232 392 244 399 q 150 278 150 346 q 213 185 150 214 q 254 178 225 181 q 450 339 383 178 l 492 313 z "},"X":{"ha":722,"x_min":-25,"x_max":739,"o":"m 739 732 l 582 732 l 582 579 l 533 579 l 519 642 l 511 636 l 499 565 l 443 565 l 439 567 l 436 576 l 433 588 l 429 597 q 344 635 394 635 q 244 604 283 635 q 204 535 210 583 q 247 465 204 497 q 443 507 360 507 q 525 496 499 507 q 620 447 582 482 q 658 368 658 411 q 638 339 658 342 l 621 342 l 610 344 l 604 344 l 599 346 l 582 346 q 414 249 414 346 q 421 225 414 236 l 438 208 q 461 196 449 200 l 490 193 q 563 246 543 193 l 568 283 l 624 285 l 622 264 q 617 246 622 254 l 606 226 l 590 207 l 604 208 q 658 278 658 226 l 708 279 q 647 183 708 221 q 499 144 585 144 q 310 215 367 144 q 296 263 296 239 q 353 353 296 318 q 492 389 410 389 l 511 389 l 518 388 l 525 388 q 525 410 529 397 q 508 431 521 421 l 478 444 l 443 450 q 245 395 328 450 q 163 256 163 340 q 207 149 163 197 q 321 79 251 100 q 421 65 367 65 q 372 1 403 21 q 143 64 246 1 q 24 256 24 136 q 35 310 24 286 q 190 444 78 400 q 88 501 135 447 q 64 564 64 529 q 79 606 64 589 q 275 675 131 675 l 326 675 q 443 654 410 675 l 443 732 l -25 732 l -25 775 l 443 775 l 443 789 l 506 789 l 519 704 l 525 704 l 539 803 l 576 803 l 581 793 l 582 788 l 582 775 l 739 775 l 739 732 z "},"Y":{"ha":549,"x_min":51,"x_max":597,"o":"m 575 732 l 533 732 l 511 775 l 575 775 l 575 732 m 597 285 q 532 192 576 236 q 494 161 521 181 q 346 117 421 117 q 139 192 226 117 q 51 374 51 267 l 56 401 q 94 439 64 426 l 122 444 l 136 443 l 156 440 q 175 438 168 440 l 190 436 q 337 500 274 436 q 400 649 400 564 q 310 788 400 775 q 232 726 250 788 l 226 689 q 263 607 226 636 q 360 578 299 578 l 333 540 l 310 521 q 218 583 249 542 l 213 579 q 261 507 224 529 l 229 489 l 204 479 q 93 600 128 518 q 86 649 86 628 q 231 815 86 768 q 317 829 274 829 q 465 777 403 829 q 526 649 526 725 q 415 458 526 535 q 199 382 324 396 q 248 247 199 301 q 374 193 297 193 q 476 228 428 193 q 547 318 524 264 l 597 285 z "},"Z":{"ha":611,"x_min":-14,"x_max":625,"o":"m 625 732 l 563 732 l 526 775 l 625 775 l 625 732 m 149 775 l 114 732 l -14 732 l -14 775 l 149 775 m 576 578 q 498 388 576 475 q 301 269 419 301 l 310 257 l 563 160 l 533 118 l 463 151 l 457 138 l 511 103 l 478 44 l 15 214 l 18 225 l 31 263 l 38 269 l 114 243 l 121 257 l 58 299 l 72 342 l 211 299 q 361 366 301 299 q 421 535 421 433 q 371 683 421 632 q 296 717 339 717 q 217 665 243 717 l 211 635 q 222 590 211 611 q 381 521 272 521 l 386 521 l 392 519 l 396 517 l 400 515 l 374 481 l 350 456 l 332 440 l 317 436 q 219 493 279 436 l 211 489 q 282 425 225 444 l 236 403 l 206 396 q 128 446 172 396 q 107 474 117 460 q 86 535 90 501 q 164 705 86 636 q 353 774 242 774 q 438 758 403 774 q 560 653 521 731 q 576 578 576 619 z "},"[":{"ha":0,"x_min":-472,"x_max":50,"o":"m 50 -167 q -132 -269 -18 -249 q -214 -278 -178 -278 q -355 -249 -289 -278 q -453 -174 -421 -221 q -472 -110 -472 -146 q -372 32 -472 -22 q -194 76 -290 76 l -196 22 q -276 11 -247 22 q -408 -110 -408 -22 q -353 -185 -408 -156 q -257 -208 -308 -208 q -85 -125 -149 -208 q -53 -68 -71 -107 l -14 -104 q -76 -181 -31 -160 l -78 -186 l -49 -182 l -25 -169 l -3 -150 l 14 -124 q 31 -137 24 -128 l 50 -167 z "},"\\":{"ha":0,"x_min":-528,"x_max":-75,"o":"m -75 -222 l -111 -242 l -181 -181 l -139 -256 l -174 -278 l -431 0 l -508 -68 l -528 -28 l -425 71 l -340 71 l -75 -222 z "},"]":{"ha":0,"x_min":-781,"x_max":-186,"o":"m -186 796 l -250 764 l -297 764 q -781 1018 -615 879 l -735 1061 l -644 1000 l -637 1006 l -700 1083 l -622 1111 q -476 964 -540 1014 q -186 796 -340 857 z "},"^":{"ha":715,"x_min":15,"x_max":831,"o":"m 831 -10 q 806 -32 811 -28 q 775 -46 790 -43 l 765 -43 q 668 28 707 -26 l 660 25 q 736 -65 685 -33 q 686 -79 707 -83 q 608 -8 644 -71 q 544 125 603 1 q 310 74 446 74 q 189 85 235 74 q 15 242 15 126 q 131 393 15 332 q 211 425 158 408 q 94 476 150 440 q 22 547 39 511 q 15 597 15 563 q 118 733 15 683 q 296 774 201 774 q 401 763 347 774 q 568 635 568 728 l 564 611 l 551 588 l 535 569 l 519 564 l 506 565 l 485 578 l 489 594 l 490 608 l 489 618 l 488 629 l 478 649 l 471 650 q 435 564 471 597 l 353 565 q 401 640 401 588 q 370 702 401 679 q 296 725 339 725 q 198 687 239 725 q 157 592 157 649 q 197 507 157 535 q 296 472 238 469 l 333 474 q 367 479 350 474 l 367 426 q 283 407 313 422 q 215 372 251 400 q 157 269 157 328 q 202 162 157 207 q 310 117 247 117 q 504 203 472 117 q 388 317 453 290 l 422 363 q 556 257 488 343 q 678 100 589 213 q 831 -10 746 14 z "},"_":{"ha":424,"x_min":68,"x_max":360,"o":"m 360 431 q 164 10 360 175 l 82 11 q 158 88 131 47 q 215 175 160 90 q 263 360 263 272 q 249 478 263 417 q 68 779 208 657 l 108 822 l 164 775 l 172 775 l 165 790 l 144 829 l 193 851 q 360 431 360 651 z "},"`":{"ha":826,"x_min":-14,"x_max":840,"o":"m 840 732 l -14 732 l -14 775 l 840 775 l 840 732 m 749 110 q 736 88 749 88 l 700 89 q 690 99 693 94 l 685 133 l 685 150 q 682 172 685 158 q 679 199 682 192 l 672 200 l 651 75 l 610 75 l 610 460 q 567 451 589 460 l 511 431 l 514 410 l 515 389 q 496 296 518 344 q 396 185 463 225 q 246 144 329 144 q 51 238 125 144 q 14 306 28 268 l 19 319 l 28 333 l 38 347 l 49 360 q 65 322 61 329 q 119 269 85 282 q 85 389 85 319 l 88 396 l 97 406 l 118 422 l 133 436 q 192 287 133 353 q 329 221 250 221 q 403 251 374 221 q 433 325 433 281 q 379 489 433 414 q 253 564 325 564 q 176 535 222 564 l 201 588 q 218 606 211 603 l 285 601 q 329 592 311 600 l 338 599 l 310 615 l 285 629 l 258 638 l 232 640 q 272 675 254 672 q 475 554 404 649 q 511 488 488 538 l 533 496 l 556 501 l 581 506 l 610 507 l 610 697 l 617 703 l 651 704 q 663 693 660 699 l 668 667 l 679 592 l 686 593 l 688 640 l 692 676 q 714 711 694 703 l 749 718 l 749 110 z "},"a":{"ha":744,"x_min":-14,"x_max":758,"o":"m 758 732 l -14 732 l -14 775 l 758 775 l 758 732 m 675 707 l 665 85 l 660 83 l 626 85 q 615 93 618 90 l 610 126 q 607 165 610 153 q 604 201 607 189 l 599 203 l 585 71 l 535 71 l 535 335 q 333 101 461 163 q 260 83 296 83 q 179 99 214 83 q 51 300 51 156 q 169 556 51 432 l 147 585 l 189 618 l 217 590 q 397 658 285 658 q 447 647 426 658 q 529 513 529 617 q 519 500 524 504 l 500 485 l 496 489 l 493 494 q 486 511 490 506 l 481 525 l 472 538 l 467 547 l 453 543 l 463 525 l 468 508 l 471 490 l 472 471 l 468 457 l 458 447 l 443 439 l 425 438 l 421 446 l 419 453 l 413 471 l 411 485 q 397 526 408 507 q 326 589 374 582 q 303 586 311 589 l 282 576 l 263 561 l 246 542 l 411 301 l 369 265 l 210 472 l 194 422 l 189 347 q 197 279 186 317 q 288 174 226 174 q 490 358 403 174 q 535 485 510 400 l 535 681 q 549 693 538 693 l 576 694 q 590 651 586 685 l 594 615 l 599 589 l 613 590 l 613 646 q 629 701 613 693 l 643 703 q 651 706 650 704 l 661 707 l 675 707 z "},"b":{"ha":701,"x_min":-14,"x_max":715,"o":"m 715 732 l 617 732 l 617 571 l 569 571 l 556 640 l 547 640 l 533 557 l 478 557 q 340 597 443 597 q 242 539 282 597 q 203 403 203 481 q 237 274 203 325 q 326 222 271 222 q 422 270 381 222 q 475 386 464 318 q 478 429 478 404 l 542 431 l 540 410 l 542 394 l 547 376 l 556 353 l 561 354 l 582 458 l 660 458 q 617 208 617 358 q 638 26 617 63 l 589 28 l 564 86 q 556 126 556 106 l 547 128 q 569 0 547 38 l 506 0 q 472 258 472 56 q 418 199 453 222 q 394 182 413 194 q 285 154 342 154 q 126 226 189 154 q 63 403 63 297 q 138 579 63 508 q 326 651 214 650 q 478 603 419 653 l 478 732 l -14 732 l -14 775 l 478 775 l 478 785 l 521 790 l 547 681 l 556 681 l 569 797 l 617 797 l 617 775 l 715 775 l 715 732 z "},"c":{"ha":924,"x_min":31,"x_max":938,"o":"m 938 732 l 592 732 l 564 775 l 938 775 l 938 732 m 829 717 l 825 93 q 815 88 818 88 l 779 89 q 771 92 772 90 l 765 107 q 763 135 765 125 l 763 161 q 760 185 763 176 l 758 207 l 753 208 l 749 161 l 747 132 q 725 74 744 76 l 689 75 l 689 460 l 569 383 l 579 361 l 586 340 l 590 318 l 592 297 q 574 213 594 256 q 325 74 506 74 q 131 122 214 74 q 31 249 47 171 l 43 263 l 69 286 l 79 292 q 129 213 88 251 q 118 247 125 218 l 115 311 l 125 318 l 143 331 l 161 342 l 172 346 l 171 333 l 171 317 q 265 124 171 178 q 325 108 292 108 q 440 192 406 108 q 450 240 450 215 q 439 297 450 274 q 389 361 426 335 q 311 388 351 388 q 294 389 300 389 q 276 386 290 389 l 249 374 l 240 404 q 306 436 281 436 l 288 443 l 269 446 l 250 443 l 226 436 l 213 465 q 353 546 297 488 q 410 674 410 604 q 381 754 410 721 q 306 788 351 788 q 206 725 238 788 q 186 649 186 688 q 226 550 186 583 l 178 531 q 143 557 157 540 l 122 592 l 121 569 l 122 553 l 128 538 l 136 521 l 115 517 l 88 515 q 74 526 78 521 l 60 560 l 49 601 l 46 633 q 68 711 43 669 q 233 821 114 788 q 353 836 288 836 q 492 790 436 836 q 549 674 549 744 q 346 464 549 542 l 418 460 q 563 396 507 454 l 549 446 l 689 531 l 689 690 q 703 703 692 703 l 731 704 q 742 696 739 699 l 751 678 l 756 649 l 758 613 l 767 614 l 768 651 q 771 688 769 681 q 792 713 776 710 l 810 715 l 829 717 z "},"d":{"ha":826,"x_min":-14,"x_max":840,"o":"m 840 732 l 482 732 l 482 775 l 840 775 l 840 732 m 193 732 l -14 732 l -14 775 l 179 775 l 193 732 m 719 718 l 715 93 q 706 88 708 88 l 668 89 q 660 99 661 94 l 656 132 l 656 149 q 653 174 656 151 l 649 207 l 628 75 l 578 75 l 578 460 q 553 463 561 460 l 536 464 l 531 464 l 525 465 l 518 465 l 474 461 q 439 450 456 460 q 381 204 439 317 q 188 65 308 65 q 67 109 115 65 q 19 221 19 153 q 119 381 19 308 q 299 465 196 436 l 294 557 l 282 636 q 229 758 263 711 l 271 774 l 299 779 q 349 660 335 739 l 354 661 l 356 669 l 356 683 l 354 707 l 350 731 l 343 753 l 335 774 l 343 779 l 354 785 l 417 793 l 428 751 l 435 694 l 438 613 l 439 501 l 476 510 l 518 513 l 543 513 l 558 510 l 578 507 l 578 697 l 586 704 l 621 704 q 632 693 629 699 l 638 664 l 649 583 l 654 585 q 657 618 654 606 q 660 654 657 640 q 683 711 664 703 l 719 718 m 299 283 l 299 426 q 158 242 158 374 l 163 197 q 229 131 174 139 q 256 142 243 133 q 293 225 275 158 l 299 283 z "},"e":{"ha":826,"x_min":53,"x_max":840,"o":"m 840 732 l 522 732 l 522 775 l 840 775 l 840 732 m 764 717 l 753 88 l 715 89 l 708 92 l 707 104 l 699 156 l 693 186 l 681 106 q 660 74 676 76 l 625 75 l 626 699 q 639 703 631 703 l 665 704 q 674 693 672 699 l 681 665 l 686 633 q 693 611 689 618 l 704 676 q 728 713 708 704 l 744 715 l 764 717 m 625 522 l 608 522 l 589 521 q 528 510 557 518 l 472 501 q 425 240 472 365 q 249 74 363 74 q 110 119 167 74 q 53 235 53 165 q 132 403 53 326 q 339 515 211 479 q 319 671 339 585 q 243 788 293 788 q 207 763 221 788 l 196 735 l 193 703 q 260 603 188 639 q 303 596 274 599 l 313 596 l 319 597 l 265 561 q 235 550 249 553 q 164 619 199 550 q 161 611 163 613 l 161 604 q 182 549 161 578 q 193 535 189 539 l 172 525 l 154 519 q 138 517 143 519 l 124 515 q 78 554 96 515 l 58 596 l 53 635 q 124 785 53 725 q 297 844 194 844 q 425 733 374 844 q 472 556 464 649 l 507 563 l 568 574 l 603 579 l 625 582 l 625 522 m 354 332 l 347 474 q 193 269 193 422 q 269 131 193 143 q 347 251 328 135 q 354 332 356 301 z "},"f":{"ha":278,"x_min":-36,"x_max":313,"o":"m 313 732 l -36 732 l -36 775 l 313 775 l 313 732 m 206 717 l 194 88 l 157 89 l 150 92 l 149 104 l 140 156 l 135 186 l 125 126 l 122 106 q 117 86 119 89 q 101 74 111 75 l 67 75 l 68 699 q 81 703 72 703 l 107 704 q 115 693 114 699 l 122 665 l 128 633 q 135 611 131 618 l 146 676 q 169 713 150 704 l 186 715 l 206 717 z "},"g":{"ha":785,"x_min":-14,"x_max":799,"o":"m 799 732 l -14 732 l -14 775 l 799 775 l 799 732 m 706 717 l 703 94 q 697 89 700 89 l 690 88 l 657 89 q 647 96 650 93 l 643 118 l 636 168 l 635 193 l 628 194 l 614 75 l 564 75 l 564 557 l 549 557 l 526 560 l 514 560 l 503 561 l 483 561 q 263 476 354 561 q 172 269 172 392 q 200 162 172 207 q 271 115 228 117 q 340 146 308 114 q 357 171 354 163 q 368 221 365 188 q 357 274 368 246 q 235 396 311 388 l 278 421 l 299 432 l 314 436 l 354 397 q 376 368 371 381 q 333 458 376 421 l 351 468 l 363 472 q 458 371 429 439 q 481 283 481 319 q 405 122 481 188 q 221 57 329 57 q 93 120 146 57 q 40 269 40 183 q 188 526 40 428 q 483 614 318 614 l 489 614 l 499 613 l 522 610 l 564 606 l 564 697 l 572 704 l 614 704 q 621 694 619 699 l 626 669 l 631 640 l 635 619 l 643 628 l 644 651 l 647 679 l 651 703 q 663 713 656 711 l 681 715 l 706 717 z "},"h":{"ha":903,"x_min":-14,"x_max":913,"o":"m 913 732 l -14 732 l -14 775 l 913 775 l 913 732 m 803 110 q 800 93 806 99 q 789 88 794 88 l 754 89 q 744 100 747 94 l 739 136 l 739 153 q 736 175 739 161 l 735 199 l 726 200 l 721 165 l 719 122 q 718 104 719 111 l 718 96 q 707 74 715 78 l 664 75 l 664 551 q 618 549 644 551 l 578 544 q 542 538 561 543 l 511 529 q 588 325 588 461 q 508 141 588 217 q 315 65 428 65 q 103 197 183 65 q 35 450 35 310 l 38 457 l 46 465 l 61 475 l 83 488 l 88 414 q 103 368 89 385 l 103 414 q 126 515 103 494 l 174 557 l 165 504 l 164 450 q 208 240 161 338 q 369 122 265 122 q 454 204 425 122 l 461 235 l 461 256 q 450 336 461 303 q 402 431 439 390 q 315 479 365 471 l 315 536 q 664 606 469 606 l 664 683 l 665 697 l 678 703 l 713 704 q 721 692 719 697 l 726 660 l 731 624 l 735 597 l 749 599 l 750 611 l 753 628 l 753 646 l 756 665 q 768 711 756 706 l 803 718 l 803 110 z "},"i":{"ha":456,"x_min":-14,"x_max":521,"o":"m 486 732 l 346 732 l 367 775 l 486 775 l 486 732 m 88 775 l 67 732 l -14 732 l -14 775 l 88 775 m 521 369 q 347 164 460 222 q 283 150 313 150 q 121 276 179 150 q 74 493 74 378 q 136 767 74 656 l 174 776 l 207 779 q 165 654 165 729 l 174 656 q 256 779 210 763 l 303 796 l 332 801 q 269 703 289 758 l 474 383 l 493 438 l 521 369 m 438 332 l 250 642 l 242 615 l 233 592 l 222 542 l 215 490 l 214 436 l 214 403 q 240 285 214 349 q 269 236 253 254 q 304 221 285 224 q 438 332 375 226 z "},"j":{"ha":750,"x_min":-14,"x_max":764,"o":"m 764 732 l -14 732 l -14 775 l 764 775 l 764 732 m 647 707 l 644 90 q 639 85 642 85 l 633 83 l 600 85 q 590 94 593 90 l 583 128 l 579 165 l 578 193 l 572 194 l 558 71 l 508 71 l 508 335 q 307 101 435 163 q 232 83 269 83 q 113 124 167 83 q 39 228 60 165 q 25 319 25 269 q 83 508 25 424 q 236 633 140 593 q 371 658 294 657 q 463 615 425 658 q 501 513 501 571 q 499 501 501 504 l 482 485 l 476 493 l 464 515 l 453 529 l 440 547 l 432 543 l 449 506 l 454 471 q 444 460 449 463 l 418 451 l 399 444 l 394 446 l 392 456 l 388 469 l 383 489 l 371 528 l 350 560 q 294 589 328 585 q 190 496 228 589 q 163 347 163 426 q 185 240 163 293 q 261 174 213 174 q 464 358 376 174 q 508 485 483 400 l 508 688 l 517 694 l 550 694 q 561 683 558 689 l 568 658 q 571 642 568 647 q 574 625 571 631 l 575 611 l 578 597 l 586 599 q 610 701 586 694 l 631 706 l 647 707 z "},"k":{"ha":688,"x_min":-14,"x_max":701,"o":"m 701 732 l 326 732 l 347 775 l 701 775 l 701 732 m 67 775 l 47 732 l -14 732 l -14 775 l 67 775 m 613 717 l 601 88 l 565 89 q 556 99 558 94 l 550 132 q 547 153 550 146 l 547 171 q 544 186 547 181 l 543 199 l 536 200 l 522 75 l 474 75 l 474 326 q 398 201 458 253 q 263 150 338 150 q 104 256 165 150 q 53 450 53 344 q 117 767 53 658 l 163 776 l 186 779 l 158 722 q 151 689 151 708 l 165 690 l 182 719 q 201 746 192 736 l 221 765 l 244 781 l 265 790 l 297 800 l 313 801 q 208 450 208 669 q 232 317 208 381 q 319 226 263 233 q 436 331 389 226 q 464 418 456 374 q 474 479 465 429 l 474 697 l 481 704 l 515 704 q 524 690 522 696 l 529 654 l 533 615 q 536 597 533 601 l 543 599 l 544 629 q 554 699 546 660 q 565 711 558 708 l 588 715 l 613 717 z "},"l":{"ha":299,"x_min":-8,"x_max":925,"o":"m 925 926 l 903 882 q 888 857 893 863 l 876 850 l 858 850 q 806 864 822 850 l 797 860 q 854 815 800 832 l 847 806 l 842 793 l 836 782 l 833 779 q 611 885 713 797 q 400 1025 528 957 q 296 1053 349 1053 q 211 1024 246 1053 q 176 949 176 994 q 257 850 176 882 q 310 843 285 843 l 285 832 l 261 824 l 240 817 l 225 815 q 196 822 210 815 l 154 843 l 140 844 q 153 818 142 831 l 182 801 l 140 775 l 340 775 l 340 732 l -8 732 l -8 775 l 106 775 l 69 803 l 43 838 l 26 875 l 21 913 q 124 1063 21 1006 q 310 1110 208 1110 q 624 1011 474 1110 l 693 965 l 758 932 l 817 911 l 868 906 l 892 911 q 925 926 907 915 m 231 110 q 228 93 233 99 q 217 88 222 88 l 182 89 q 172 96 175 93 l 167 119 l 164 154 l 163 199 l 154 200 l 140 75 l 92 75 l 92 697 l 99 704 l 126 704 q 135 699 133 701 l 140 686 l 147 638 l 154 597 l 163 599 l 163 636 l 164 672 q 169 699 164 690 l 179 710 l 192 713 l 206 715 l 211 715 l 218 717 l 231 717 l 231 110 z "},"m":{"ha":331,"x_min":-86,"x_max":344,"o":"m 344 732 l -14 732 l -14 775 l 344 775 l 344 732 m 311 115 l 274 86 l 258 76 l 249 74 q 235 81 239 78 l 219 106 l 210 121 l 192 150 l 186 146 q 189 108 186 121 l 200 74 l 176 61 l 158 57 l 151 58 l 147 67 q 136 101 146 71 l 126 132 l 118 160 l 111 192 l 107 208 l 104 228 l 100 247 l 96 269 l 82 335 l 78 364 q 39 436 68 429 q -26 343 -4 436 l -58 210 l -86 101 l -86 279 q -26 456 -68 378 q 110 564 32 564 q 172 500 136 564 l 200 428 q 221 339 211 400 q 311 115 250 167 z "},"n":{"ha":833,"x_min":-14,"x_max":849,"o":"m 849 732 l -14 732 l -14 775 l 849 775 l 849 732 m 738 110 q 735 93 740 99 q 724 88 729 88 l 689 89 q 681 97 682 94 l 676 128 q 674 164 676 144 l 669 193 l 661 194 l 647 75 l 599 75 l 599 481 l 432 340 l 389 383 q 353 519 389 461 q 263 578 318 578 q 160 483 186 578 q 151 425 151 453 q 219 262 151 331 q 394 172 286 193 l 350 139 l 326 129 l 310 135 l 296 140 l 256 165 l 250 160 q 299 108 267 118 l 264 82 l 250 74 q 46 368 46 196 q 124 558 46 482 q 318 633 203 633 q 381 619 349 636 q 446 582 408 608 l 472 554 l 492 529 l 504 504 l 508 479 l 599 550 l 599 697 l 607 703 l 640 704 q 649 697 647 700 l 654 685 l 658 658 l 663 635 q 665 611 663 619 l 669 592 l 675 593 l 675 608 l 674 617 l 674 657 q 689 711 674 703 l 738 718 l 738 110 z "},"o":{"ha":764,"x_min":-7,"x_max":778,"o":"m 778 732 l 482 732 l 460 775 l 778 775 l 778 732 m 168 732 l -7 732 l -7 775 l 146 775 l 168 732 m 672 717 l 668 93 q 658 88 661 88 l 622 89 q 614 93 615 90 l 608 118 q 606 133 608 128 l 606 147 q 603 160 604 157 l 601 172 l 593 174 l 579 75 l 531 75 l 531 285 q 497 222 517 247 q 307 136 431 136 q 107 219 188 136 q 26 424 26 303 q 106 507 26 496 l 119 504 l 142 500 l 164 494 l 182 493 q 264 522 226 490 q 301 597 301 553 l 297 626 l 285 653 l 264 678 q 236 703 251 693 l 211 724 q 203 739 203 732 l 206 746 l 221 756 l 238 767 l 250 774 q 279 756 260 774 q 329 703 311 726 l 335 704 l 332 724 q 324 744 332 735 q 308 763 321 753 l 288 779 l 321 800 l 343 807 q 415 740 385 785 q 449 647 444 694 l 449 626 q 315 457 449 506 q 231 444 281 444 l 160 451 q 213 279 160 351 q 343 207 265 207 q 462 258 411 207 q 531 396 513 310 l 531 697 l 539 704 l 574 704 q 581 693 579 699 l 585 668 q 588 636 585 647 l 593 613 l 601 614 l 606 657 q 608 686 606 679 q 628 713 608 710 l 647 715 l 672 717 z "},"p":{"ha":639,"x_min":-14,"x_max":653,"o":"m 653 732 l 463 732 q 546 639 546 696 q 467 538 546 585 q 339 485 411 504 q 535 427 456 485 q 614 278 614 369 q 567 163 614 215 q 444 85 521 110 q 339 69 399 69 q 64 154 164 69 q 19 215 36 178 l 26 228 l 36 240 l 42 246 l 50 253 l 67 264 q 117 208 67 233 l 117 217 q 100 247 106 228 l 94 292 l 129 317 l 165 339 q 271 133 165 197 q 339 118 304 118 q 390 129 368 118 q 476 278 476 174 q 423 385 476 340 q 297 429 369 429 q 207 417 242 429 l 196 435 l 193 457 l 226 475 l 254 485 l 193 494 l 193 543 l 243 543 q 272 549 247 544 q 400 639 400 572 q 367 692 400 664 q 294 732 333 721 l -14 732 l -14 775 l 653 775 l 653 732 z "},"q":{"ha":739,"x_min":-19,"x_max":753,"o":"m 753 732 l -19 732 l -19 775 l 753 775 l 753 732 m 656 717 l 644 88 l 607 89 l 600 92 l 599 104 l 590 156 l 585 186 l 575 126 l 572 106 q 567 86 569 89 q 551 74 561 75 l 517 75 l 518 699 q 531 703 522 703 l 557 704 q 565 693 564 699 l 572 665 l 578 633 q 585 611 581 618 l 596 676 q 619 713 600 704 l 636 715 l 656 717 m 517 313 l 125 89 l 97 146 l 253 236 q 357 465 357 356 q 351 500 357 488 l 339 529 q 293 556 324 551 q 171 461 204 556 q 160 403 160 429 l 160 382 q 163 368 160 372 l 110 394 q 92 417 93 407 l 92 431 q 94 447 92 442 l 97 461 l 103 476 l 118 506 q 140 535 125 519 q 56 436 92 513 l 35 456 l 19 474 l 8 490 l 0 507 q 267 654 101 654 q 380 598 333 654 q 426 465 426 542 q 364 292 426 379 l 517 383 l 517 313 z "},"r":{"ha":708,"x_min":-14,"x_max":722,"o":"m 722 732 l -14 732 l -14 775 l 722 775 l 722 732 m 621 707 l 617 89 q 607 83 610 83 l 578 85 q 565 94 574 86 l 557 126 l 551 161 l 550 188 l 542 189 l 531 89 q 525 74 531 81 l 515 69 l 481 71 l 481 279 q 385 138 458 192 q 217 83 311 83 q 118 131 157 83 q 79 250 79 179 q 272 507 79 394 l 272 522 q 32 451 81 451 l 26 454 l 24 464 l 21 479 l 18 499 l 35 499 q 82 507 53 499 q 100 513 86 508 l 100 529 l 81 529 l 49 533 l 19 539 l 10 547 l 18 599 l 126 600 l 226 608 q 418 644 318 615 q 433 638 428 644 l 439 625 l 439 585 l 379 546 q 347 519 375 543 q 225 306 225 415 q 249 222 225 249 q 307 188 271 188 q 433 279 383 188 q 481 438 471 349 l 482 689 q 494 693 486 693 l 522 694 l 528 681 l 532 660 l 532 647 l 535 636 q 538 624 536 626 l 542 611 l 550 613 l 554 644 l 558 672 l 564 692 q 571 700 567 699 l 588 704 l 607 707 l 621 707 z "},"s":{"ha":1083,"x_min":-14,"x_max":1097,"o":"m 1097 732 l -14 732 l -14 775 l 1097 775 l 1097 732 m 1078 115 l 1040 86 l 1025 76 l 1015 74 q 1001 81 1006 78 l 986 106 l 976 121 l 958 150 l 953 146 q 956 108 953 121 l 967 74 l 943 61 l 925 57 l 918 58 l 914 67 q 903 101 913 71 l 893 132 l 885 160 l 878 192 l 874 208 l 871 228 l 867 247 l 863 269 l 849 335 l 844 364 q 806 436 835 429 q 740 343 763 436 l 708 210 l 681 101 l 676 96 l 672 92 l 668 89 l 639 89 l 629 94 l 621 117 l 614 140 l 610 158 l 603 126 l 601 110 l 593 82 q 582 74 589 74 l 540 75 l 540 375 q 420 186 499 257 q 246 115 342 115 q 107 178 164 115 q 50 325 50 240 l 50 351 q 113 514 50 421 q 386 675 221 675 q 504 593 454 675 q 533 535 521 567 l 497 508 q 449 564 497 532 l 458 531 l 463 479 l 414 451 q 399 506 410 482 q 315 592 376 582 q 218 544 260 592 q 165 426 176 496 q 163 382 163 408 q 194 271 163 318 q 274 226 226 232 q 443 307 368 226 q 540 507 518 388 l 542 699 q 554 703 550 703 l 588 704 q 596 693 594 699 l 601 668 l 606 639 l 610 619 l 617 621 l 621 644 l 625 671 l 633 699 q 644 711 636 710 l 681 718 l 681 279 q 740 456 699 378 q 876 564 799 564 q 939 500 903 564 l 967 428 q 988 339 978 400 q 1078 115 1017 167 z "},"t":{"ha":667,"x_min":-14,"x_max":681,"o":"m 681 732 l -14 732 l -14 775 l 681 775 l 681 732 m 585 106 q 582 89 588 94 q 571 83 576 83 l 538 85 q 528 94 531 90 l 524 128 q 521 164 524 153 q 518 188 521 181 l 510 189 l 496 71 l 447 71 l 447 585 q 276 494 353 549 q 171 347 171 419 l 171 311 q 194 235 176 286 q 208 207 203 217 q 226 182 210 206 l 268 140 l 289 122 l 296 113 l 289 107 l 267 96 l 260 93 l 254 90 q 164 182 199 126 l 150 183 q 213 83 179 103 l 192 72 l 171 63 q 69 174 113 99 q 42 251 61 189 q 32 339 32 303 q 278 565 32 442 q 447 639 340 597 l 447 688 l 454 694 l 489 694 q 501 682 497 694 l 507 653 l 510 561 l 518 563 q 521 613 518 596 q 524 657 521 643 q 547 701 526 693 l 567 706 l 585 707 l 585 106 z "},"u":{"ha":868,"x_min":-10,"x_max":897,"o":"m 897 732 l 508 732 l 468 775 l 897 775 l 897 732 m 789 110 q 775 88 789 88 l 740 89 q 733 97 735 94 l 729 125 l 725 158 l 721 186 l 715 153 l 710 122 q 685 74 701 81 l 650 75 l 651 699 q 664 703 660 703 l 692 704 q 700 693 699 699 l 707 665 l 713 633 l 721 611 q 746 711 729 708 l 789 718 l 789 110 m 174 775 l 132 732 l -10 732 l -10 775 l 174 775 m 522 521 q 440 285 522 383 q 236 186 358 186 q 56 286 117 186 q 21 410 21 343 l 26 422 l 47 440 l 89 472 q 94 440 89 458 l 111 388 l 118 389 q 140 493 118 474 q 179 515 154 506 l 244 542 l 218 514 q 185 439 194 489 l 181 396 q 253 251 181 301 q 299 240 275 240 q 422 354 389 240 q 432 425 432 388 q 394 571 432 501 q 299 669 357 640 q 217 689 261 688 l 160 690 q 244 744 214 744 q 307 724 263 744 q 342 703 311 721 q 299 758 325 739 l 332 769 l 356 774 q 476 676 431 747 q 522 521 522 606 z "},"v":{"ha":1222,"x_min":-21,"x_max":1235,"o":"m 1235 732 l 564 732 l 536 775 l 1235 775 l 1235 732 m 1124 717 l 1119 93 q 1110 88 1113 88 l 1074 89 q 1067 96 1068 93 l 1061 121 l 1057 150 l 1053 172 l 1047 138 l 1042 106 q 1038 86 1039 89 q 1025 74 1035 78 l 983 75 l 983 438 l 967 390 q 906 283 949 339 q 874 246 883 254 q 815 207 849 221 q 725 67 794 119 q 564 15 656 15 q 3 306 353 15 l 28 347 l 33 351 l 40 354 l 61 343 l 117 311 l 122 326 l 54 390 l 110 438 q 215 368 164 368 q 289 379 260 368 q 411 535 411 426 q 400 588 411 565 q 350 650 388 625 q 269 675 313 675 q 238 672 253 675 l 215 668 q 250 703 232 689 l 292 725 q 361 713 335 725 q 425 675 396 701 q 360 753 418 725 l 408 772 l 439 779 q 550 592 550 704 q 450 391 550 471 q 207 311 350 311 q 635 117 450 117 l 682 121 q 724 136 706 122 q 774 193 763 156 l 757 189 l 747 188 l 739 186 l 726 186 q 575 281 626 186 q 564 340 564 310 q 648 583 564 483 q 858 682 732 682 q 925 653 904 682 q 963 578 949 635 q 954 549 963 565 l 929 521 q 886 597 921 574 q 900 507 900 579 l 896 497 l 872 476 l 858 465 l 860 476 l 860 490 q 839 563 860 542 q 788 592 828 585 q 749 576 765 592 q 690 396 690 535 q 788 283 690 294 q 943 449 889 283 q 983 696 983 571 l 986 700 l 992 703 l 1033 704 l 1039 689 l 1043 669 q 1053 619 1043 639 l 1064 679 q 1088 713 1069 710 l 1104 715 l 1124 717 m 250 775 l 201 732 l -21 732 l -21 775 l 250 775 z "},"w":{"ha":707,"x_min":3,"x_max":722,"o":"m 722 732 l 443 732 l 415 775 l 722 775 l 722 732 m 643 717 l 632 88 l 594 89 l 588 92 l 586 104 l 578 156 l 572 186 l 563 126 l 560 106 q 554 86 557 89 q 539 74 549 75 l 504 75 l 506 699 q 518 703 510 703 l 544 704 q 553 693 551 699 l 560 665 l 565 633 q 572 611 568 618 l 583 676 q 607 713 588 704 l 624 715 l 643 717 m 492 313 q 293 103 454 157 q 196 89 251 89 q 65 126 113 89 q 17 226 17 163 q 226 444 17 339 l 179 463 q 56 544 110 489 q 3 649 3 599 q 92 779 3 729 q 254 821 167 821 q 367 783 319 821 q 415 689 415 744 l 413 668 l 406 649 q 392 628 401 638 l 375 607 q 306 556 339 571 q 268 542 301 554 l 261 544 l 254 553 l 246 567 l 240 583 q 317 626 290 583 l 317 636 q 226 606 274 606 q 183 649 199 606 q 199 646 193 649 l 210 646 q 296 693 268 646 q 303 725 300 704 l 299 740 q 289 754 297 749 l 274 764 l 254 767 q 174 731 207 767 q 142 649 142 696 q 217 499 142 544 q 268 479 231 490 q 290 472 283 476 l 310 465 l 317 461 l 321 458 l 324 454 l 325 450 q 282 417 325 431 q 232 392 244 399 q 150 278 150 346 q 213 185 150 214 q 254 178 225 181 q 450 339 383 178 l 492 313 z "},"x":{"ha":681,"x_min":-14,"x_max":694,"o":"m 386 732 l -14 732 l -14 775 l 386 775 l 386 732 m 694 732 l 568 732 l 568 579 l 511 579 l 506 642 l 497 642 l 486 565 l 429 565 l 415 592 q 353 629 400 614 l 310 635 q 225 607 256 635 q 190 542 190 581 l 194 522 l 210 503 l 232 486 l 261 472 l 282 478 l 317 483 l 363 486 l 415 488 q 563 460 490 489 q 653 354 653 422 q 650 332 653 340 l 646 310 l 636 286 l 624 264 q 590 222 613 244 l 547 186 q 486 207 513 186 q 554 283 528 225 l 547 293 q 471 221 532 249 q 440 235 457 221 l 400 269 q 491 294 454 269 q 533 360 528 319 q 513 407 533 385 q 467 437 493 429 q 415 444 440 444 q 319 429 361 444 q 169 325 219 403 q 149 256 149 292 q 261 81 149 129 q 331 65 297 65 q 497 122 438 65 l 528 110 q 499 82 518 96 l 463 65 l 467 53 q 526 71 500 53 q 547 88 535 76 l 553 85 l 563 81 l 579 68 l 596 57 q 331 1 479 1 q 207 19 260 1 q 33 161 86 61 q 10 256 10 206 q 176 450 10 389 q 126 468 149 457 l 86 497 q 50 564 50 531 l 54 586 l 68 608 l 88 628 l 114 644 q 288 675 181 675 l 329 675 q 429 654 400 675 l 429 789 l 492 789 l 506 704 l 511 704 l 519 803 l 547 803 l 563 793 l 568 775 l 694 775 l 694 732 z "},"y":{"ha":754,"x_min":10,"x_max":763,"o":"m 763 732 l 507 732 l 478 775 l 763 775 l 763 732 m 688 717 l 676 88 l 639 89 l 632 92 l 631 104 l 622 156 l 617 186 l 607 126 l 604 106 q 599 86 601 89 q 583 74 593 75 l 549 75 l 549 271 q 490 192 528 229 q 453 161 479 181 q 304 117 379 117 q 97 192 185 117 q 10 374 10 267 l 14 401 q 53 439 22 426 l 81 444 l 94 443 l 114 440 q 133 438 126 440 l 149 436 q 295 500 232 436 q 358 649 358 564 q 268 788 358 775 q 190 726 208 788 l 185 689 q 221 607 185 636 q 318 578 257 578 l 292 540 l 268 521 q 176 583 207 542 l 171 579 q 219 507 182 529 l 188 489 l 163 479 q 51 600 86 518 q 44 649 44 628 q 189 815 44 768 q 275 829 232 829 q 423 777 361 829 q 485 649 485 725 q 374 458 485 535 q 157 382 282 396 q 206 247 157 301 q 332 193 256 193 q 436 231 386 193 q 549 363 517 292 l 550 699 q 563 703 554 703 l 589 704 q 597 693 596 699 l 604 665 l 610 633 q 617 611 613 618 l 628 676 q 651 713 632 704 l 668 715 l 688 717 z "},"z":{"ha":888,"x_min":-14,"x_max":917,"o":"m 917 732 l 568 732 l 540 775 l 917 775 l 917 732 m 810 717 l 799 88 l 761 89 l 754 92 l 753 104 l 744 156 l 739 186 l 729 126 l 726 106 q 721 86 724 89 q 706 74 715 75 l 671 75 l 672 699 q 685 703 676 703 l 711 704 q 719 693 718 699 l 726 665 l 732 633 q 739 611 735 618 l 750 676 q 774 713 754 704 l 790 715 l 810 717 m 149 775 l 114 732 l -14 732 l -14 775 l 149 775 m 576 578 q 498 388 576 475 q 301 269 419 301 l 310 257 l 563 160 l 533 118 l 463 151 l 457 138 l 511 103 l 478 44 l 15 214 l 18 225 l 31 263 l 38 269 l 114 243 l 121 257 l 58 299 l 72 342 l 211 299 q 361 366 301 299 q 421 535 421 433 q 371 683 421 632 q 296 717 339 717 q 217 665 243 717 l 211 635 q 222 590 211 611 q 381 521 272 521 l 386 521 l 392 519 l 396 517 l 400 515 l 374 481 l 350 456 l 332 440 l 317 436 q 219 493 279 436 l 211 489 q 282 425 225 444 l 236 403 l 206 396 q 128 446 172 396 q 107 474 117 460 q 86 535 90 501 q 164 705 86 636 q 353 774 242 774 q 438 758 403 774 q 560 653 521 731 q 576 578 576 619 z "},"{":{"ha":0,"x_min":-297,"x_max":121,"o":"m 121 1068 l 85 1033 l -1 1069 l -7 1061 l 78 1006 l 43 971 q -124 1054 -28 1054 q -201 1020 -168 1054 q -235 942 -235 986 q -146 839 -235 865 q -89 832 -122 832 l -167 764 q -261 823 -225 774 q -297 942 -297 872 q -244 1063 -297 1015 q -110 1110 -190 1110 l -90 1110 q 121 1068 56 1110 z "},"|":{"ha":0,"x_min":-760,"x_max":-201,"o":"m -201 201 l -215 160 l -737 -108 l -746 -69 l -640 -28 l -640 -19 l -751 -42 l -760 13 l -201 201 z "},"}":{"ha":0,"x_min":-746,"x_max":-53,"o":"m -53 790 l -96 764 l -131 764 q -428 1068 -343 914 l -379 1097 l -332 1028 l -326 1028 l -346 1111 l -290 1111 q -53 790 -204 875 m -193 763 l -304 764 q -746 1018 -624 871 l -706 1061 l -674 1029 q -594 978 -640 996 l -582 986 q -669 1088 -629 1021 l -610 1111 q -193 763 -421 846 z "},"~":{"ha":569,"x_min":-14,"x_max":611,"o":"m 583 732 l -14 732 l -14 775 l 583 775 l 583 732 m 611 446 q 521 431 551 446 l 522 388 q 353 163 528 236 q 249 144 310 144 q 51 238 122 144 q 17 306 33 261 q 31 335 21 322 l 50 360 q 67 322 63 329 q 121 269 86 282 q 88 388 88 317 l 89 393 l 93 400 l 114 417 l 135 436 q 193 287 135 353 q 331 221 251 221 q 405 251 375 221 q 435 325 435 281 q 381 489 435 414 q 254 564 326 564 q 178 535 224 564 l 203 588 q 219 606 213 603 l 286 601 q 331 592 313 600 l 339 599 l 311 615 l 286 629 l 260 638 l 233 640 q 274 675 254 672 q 476 554 406 649 q 513 488 489 538 l 535 496 l 557 501 l 582 506 l 611 507 l 611 446 z "},"":{"ha":479,"x_min":-14,"x_max":510,"o":"m 501 732 l 349 732 l 382 775 l 501 775 l 501 732 m 63 775 l 40 732 l -14 732 l -14 775 l 63 775 m 510 313 q 403 148 481 217 q 243 79 326 79 q 174 90 201 79 q 75 178 111 115 q 63 242 63 207 q 114 367 63 303 q 250 479 165 431 l 250 494 q 78 578 125 494 q 63 635 63 604 q 139 779 63 726 l 151 775 q 164 772 161 774 l 175 769 l 181 767 q 153 689 153 733 l 167 690 q 243 774 213 768 l 271 767 l 290 758 l 306 753 q 215 619 215 704 q 247 544 215 576 l 283 522 q 326 515 297 518 l 360 517 l 382 521 l 392 515 l 404 499 l 414 482 l 425 465 q 278 404 351 465 q 219 343 238 371 q 201 283 201 307 q 256 193 201 221 q 292 186 268 189 q 482 360 413 186 l 510 313 z "},"":{"ha":653,"x_min":-7,"x_max":667,"o":"m 667 732 l 604 732 l 604 579 l 550 579 l 542 650 l 536 650 l 522 565 l 465 565 q 383 622 451 608 l 339 626 q 228 580 272 626 q 185 465 185 533 q 221 378 185 411 q 325 340 258 340 q 422 366 383 340 q 465 436 460 392 l 465 481 l 522 467 q 500 382 522 417 q 521 389 513 382 l 539 407 q 551 431 547 418 l 556 458 l 618 432 q 583 369 613 396 l 550 344 l 508 325 l 508 200 l 465 200 l 451 271 l 443 271 l 438 194 l 394 194 l 367 203 l 325 207 q 271 200 286 207 q 210 173 236 196 q 185 122 185 150 q 249 51 183 75 l 271 43 l 325 38 q 407 63 374 38 l 438 92 q 457 131 447 106 l 514 110 q 465 57 503 76 l 472 53 l 500 61 l 522 74 l 539 88 l 550 101 l 599 81 q 325 -18 517 -18 q 67 64 133 -18 q 46 115 46 90 q 161 225 46 188 q 333 251 242 251 l 364 251 q 382 249 376 251 l 394 249 l 394 293 l 382 286 l 367 285 l 347 283 l 325 283 q 126 341 207 283 q 46 488 46 399 q 214 663 46 621 q 325 675 271 676 l 375 674 q 422 670 390 674 q 465 654 454 667 l 465 732 l -7 732 l -7 775 l 465 775 l 465 794 l 522 794 l 528 697 l 536 697 l 550 803 l 604 803 l 604 775 l 667 775 l 667 732 z "},"":{"ha":708,"x_min":-12,"x_max":721,"o":"m 721 732 l 608 732 l 608 621 l 558 621 l 551 669 l 544 669 l 529 599 l 467 599 l 453 618 q 429 635 443 628 l 396 644 l 357 649 q 276 630 310 649 q 243 583 243 611 q 253 568 243 576 l 283 554 l 328 544 l 382 542 q 438 540 396 542 q 489 532 446 540 q 663 417 663 500 q 540 300 663 340 q 357 269 449 269 q 313 264 329 269 l 276 251 q 243 207 243 235 q 253 190 243 199 l 283 176 l 328 167 l 382 164 q 492 156 410 163 q 663 38 663 135 q 540 -78 663 -36 q 357 -108 450 -108 q 161 -79 250 -108 q 19 43 38 -39 l 63 58 l 68 46 l 89 22 l 104 10 l 111 17 l 96 46 l 90 65 l 144 89 q 210 -15 153 22 q 357 -51 267 -51 q 419 -44 397 -51 q 524 29 524 -32 q 335 114 524 96 q 160 140 213 114 q 117 171 135 153 q 104 207 104 188 q 213 293 104 254 q 19 425 47 325 l 63 438 l 76 414 l 104 388 l 111 397 l 96 425 l 90 444 l 144 467 q 213 364 153 403 q 357 325 274 325 q 458 343 408 325 q 524 410 524 367 q 444 471 524 446 q 335 492 396 486 q 286 493 319 493 l 243 493 q 176 511 192 504 q 117 549 143 522 q 104 583 104 565 q 357 689 104 689 l 371 688 l 401 683 l 436 678 q 467 675 457 678 l 467 732 l -12 732 l -12 775 l 467 775 l 467 794 l 524 794 l 538 718 l 551 718 l 558 803 l 608 803 l 608 775 l 721 775 l 721 732 z "},"":{"ha":674,"x_min":-14,"x_max":689,"o":"m 689 732 l 461 732 l 461 661 l 399 661 l 392 690 l 388 674 l 383 661 l 376 651 l 371 649 q 196 564 250 649 q 182 507 182 536 q 222 388 182 436 q 322 340 263 340 q 440 381 396 340 q 490 479 490 426 q 385 626 490 564 l 442 650 q 510 578 492 622 l 518 579 q 490 640 518 613 l 532 656 q 615 488 615 601 q 559 379 615 428 q 408 304 503 331 q 318 271 364 292 q 182 144 182 208 q 242 63 182 93 q 268 50 250 57 q 322 43 297 43 q 416 70 376 43 q 461 144 456 97 q 427 215 461 186 q 347 244 393 244 l 336 243 l 322 242 l 379 272 l 406 283 q 428 281 421 283 l 450 272 l 471 260 l 490 242 l 496 243 q 454 297 500 271 l 493 318 l 518 325 l 557 296 l 589 260 q 615 179 610 231 q 508 38 615 89 q 322 -3 424 -3 q 119 36 183 -3 l 88 56 l 63 82 l 47 113 l 43 144 q 267 297 43 251 q 58 422 124 307 q 43 493 43 457 q 128 627 43 572 q 325 682 214 682 l 325 732 l -14 732 l -14 775 l 322 775 l 322 785 l 371 785 l 385 718 l 392 718 l 399 757 l 404 776 q 414 783 407 781 l 447 785 l 457 781 q 461 775 461 774 l 689 775 l 689 732 z "},"":{"ha":819,"x_min":-14,"x_max":833,"o":"m 833 732 l 464 732 l 464 636 l 460 628 l 447 624 l 428 621 l 407 619 l 393 676 l 386 676 l 379 599 l 322 599 l 317 603 q 307 608 310 608 l 290 611 l 268 613 q 189 556 215 615 l 183 521 q 208 453 183 478 l 235 432 q 268 425 244 428 l 283 426 l 296 435 l 306 449 l 308 465 l 350 474 l 358 404 l 365 404 l 386 481 l 456 489 q 421 410 421 443 l 421 347 l 449 350 l 525 351 l 540 349 l 560 346 l 563 700 l 568 703 l 611 704 q 618 693 617 699 l 624 665 l 625 647 l 628 633 l 628 621 q 631 613 629 614 l 636 614 l 647 678 q 665 711 653 708 l 701 718 l 697 93 q 688 88 690 88 l 651 89 q 644 94 646 92 l 640 114 q 638 126 639 119 l 636 138 l 633 149 l 631 158 l 625 160 l 611 75 l 560 75 l 560 299 l 546 299 l 531 301 l 522 301 l 514 303 l 472 303 l 461 301 l 454 301 l 440 297 q 421 292 432 297 l 421 228 q 367 119 421 164 q 240 74 314 74 q 124 102 171 74 q 71 179 76 131 q 151 281 71 236 q 281 325 210 313 l 281 383 q 44 521 44 383 q 99 629 44 590 q 246 668 154 668 l 293 664 q 322 654 311 663 l 322 732 l -14 732 l -14 775 l 322 775 l 322 794 l 372 794 l 386 718 l 393 718 l 407 803 l 450 803 l 460 799 q 464 788 464 792 l 464 775 l 833 775 l 833 732 m 281 186 l 281 264 q 201 226 231 264 q 183 179 183 204 q 186 157 183 164 l 199 139 q 215 126 206 131 l 240 122 q 256 126 254 126 l 268 140 l 278 161 l 281 186 z "},"":{"ha":958,"x_min":-15,"x_max":972,"o":"m 972 732 l 667 732 l 667 775 l 972 775 l 972 732 m 403 732 l -15 732 l -15 775 l 403 775 l 403 732 m 868 94 q 863 89 865 89 l 857 88 l 829 89 q 819 97 822 94 l 813 129 q 806 165 810 153 l 800 193 l 794 194 l 786 143 l 781 93 q 775 78 781 85 l 767 74 l 732 75 l 732 438 l 710 425 l 689 415 l 667 408 l 642 403 l 656 375 l 661 340 q 546 236 661 278 q 381 199 469 208 q 475 153 429 171 l 642 88 l 604 39 l 514 81 l 508 67 l 590 25 l 563 -11 l 32 188 l 67 236 l 115 214 l 124 222 l 61 271 l 94 326 q 325 235 222 235 q 500 318 500 264 q 418 381 500 347 l 376 397 l 304 425 q 176 478 247 447 q 129 521 132 497 q 175 585 129 557 l 228 617 l 294 646 l 360 672 q 410 699 393 686 q 451 744 444 719 l 451 775 l 508 775 q 465 689 508 740 l 481 690 q 506 700 494 690 l 525 722 q 538 753 536 740 l 543 788 l 604 789 l 610 785 l 615 778 l 618 765 l 619 753 q 579 699 619 732 l 533 671 l 475 646 l 418 626 l 383 614 q 313 564 315 589 l 317 553 l 332 544 l 361 536 q 388 525 372 531 l 438 507 l 590 446 q 732 507 638 446 l 732 697 l 738 703 l 767 704 q 776 696 774 699 l 786 676 l 792 647 l 794 613 l 800 614 l 811 678 q 828 711 817 708 l 839 713 l 850 715 l 856 715 l 861 717 l 867 717 l 868 94 z "},"":{"ha":0,"x_min":-722,"x_max":-3,"o":"m -3 -171 l -18 -194 q -33 -212 -25 -206 l -47 -221 l -57 -221 q -169 -179 -119 -221 l -176 -185 q -79 -250 -137 -233 l -90 -261 l -101 -269 l -112 -275 l -122 -278 q -258 -192 -150 -278 l -346 -122 q -556 -4 -494 -4 l -590 -8 q -637 -40 -621 -15 q -646 -67 -643 -49 q -600 -118 -646 -106 l -569 -122 q -450 -89 -492 -122 l -472 -165 l -486 -169 l -518 -171 l -571 -171 l -571 -179 q -543 -193 -561 -187 l -507 -199 q -569 -242 -519 -242 q -677 -199 -632 -242 q -722 -94 -722 -157 q -656 24 -722 -24 q -499 74 -589 72 q -274 -40 -415 75 q -3 -171 -112 -171 z "},"":{"ha":785,"x_min":-17,"x_max":808,"o":"m 808 732 l 701 732 l 692 89 l 686 88 l 653 89 l 642 93 l 635 110 l 632 139 l 631 179 l 625 181 l 603 75 l 563 75 l 563 257 q 467 165 528 199 q 339 131 407 131 q 181 182 258 131 q 78 304 103 233 q 72 340 72 319 l 76 367 q 114 404 85 390 l 140 410 l 197 411 q 322 467 271 413 q 353 521 351 497 q 306 579 354 554 q 249 599 279 593 l 211 606 l 183 606 q 1 549 94 606 l 1 621 l 40 638 l 93 650 l 154 657 l 225 660 q 386 635 304 663 q 492 529 492 599 q 419 428 492 472 q 296 382 363 393 q 265 375 285 381 l 242 364 q 225 351 232 360 l 219 340 q 228 292 219 319 q 353 193 279 193 q 529 304 463 193 q 563 382 550 339 l 563 732 l -17 732 l -17 775 l 563 775 l 563 789 l 610 789 q 618 781 617 783 l 624 760 l 626 732 l 631 703 l 639 704 l 640 718 q 643 735 640 729 l 643 749 q 646 761 644 758 l 650 779 q 658 788 653 786 l 694 789 l 700 785 l 701 781 l 701 774 l 808 775 l 808 732 z "},"":{"ha":597,"x_min":-1,"x_max":597,"o":"m 597 732 l -1 732 l -1 775 l 597 775 l 597 732 m 561 501 q 376 399 493 419 q 296 390 329 390 q 131 429 207 390 q 38 558 38 476 l 101 558 q 143 490 101 521 q 231 460 185 460 l 253 460 q 424 542 356 460 q 457 600 446 568 l 497 564 q 433 488 481 507 l 433 482 l 460 486 l 485 499 l 506 518 l 525 544 q 542 531 535 540 l 561 501 z "},"":{"ha":792,"x_min":-8,"x_max":811,"o":"m 811 732 l 658 732 l 658 775 l 811 775 l 811 732 m 786 542 q 761 493 786 515 l 735 478 l 707 472 l 678 476 q 636 515 649 489 l 631 542 q 707 619 631 607 q 736 614 722 622 q 786 542 786 596 m 414 732 l -8 732 l -8 775 l 414 775 l 414 732 m 672 311 q 549 129 672 197 q 324 74 447 74 q 126 126 208 74 q 29 269 44 179 l 33 279 l 46 293 l 65 308 l 92 325 l 93 283 l 97 256 l 113 257 q 140 346 113 333 l 172 356 l 204 360 l 211 357 l 217 354 q 183 283 183 321 q 233 169 183 217 q 350 122 283 122 q 497 162 433 122 q 561 263 561 201 q 279 422 561 342 q 169 464 207 443 l 144 478 q 126 493 133 483 l 115 507 l 113 521 q 204 625 113 579 l 267 649 l 354 674 l 413 694 q 469 744 464 713 l 463 775 l 533 775 q 526 740 533 756 l 506 696 l 511 697 q 574 788 574 725 l 617 789 q 631 753 631 779 q 619 719 631 735 q 546 660 603 686 l 490 640 l 383 617 l 319 604 q 253 564 253 592 q 261 546 253 557 l 288 533 l 385 513 l 475 492 q 615 422 558 472 q 672 311 672 371 z "},"":{"ha":0,"x_min":-556,"x_max":-418,"o":"m -418 958 q -424 932 -418 944 l -436 910 l -460 894 l -486 890 l -512 894 q -550 932 -536 903 l -556 958 q -535 1007 -556 989 q -512 1022 -528 1015 l -486 1028 q -424 985 -439 1028 l -418 958 z "},"":{"ha":7,"x_min":-978,"x_max":-285,"o":"m -285 -82 q -387 -232 -285 -176 q -575 -278 -472 -278 q -812 -218 -704 -278 q -978 -54 -919 -158 l -937 -7 q -851 -96 -921 -69 l -847 -90 q -900 21 -900 -56 l -839 71 q -744 -136 -839 -50 q -521 -222 -649 -222 q -419 -191 -471 -222 q -367 -124 -367 -160 q -376 -103 -367 -112 l -399 -85 q -432 -72 -414 -76 l -471 -68 l -503 -71 q -536 -82 -517 -72 l -569 -99 l -603 -124 q -540 -7 -594 -53 l -494 -7 q -460 -10 -471 -7 l -433 -14 q -417 -21 -422 -17 l -410 -14 q -499 21 -419 0 l -481 33 l -465 44 l -440 51 l -422 54 q -325 14 -365 54 q -285 -82 -285 -18 z "},"":{"ha":479,"x_min":-14,"x_max":524,"o":"m 504 732 l 453 732 l 431 775 l 504 775 l 504 732 m 161 732 l -14 732 l -14 775 l 139 775 l 161 732 m 524 285 q 490 222 510 247 q 300 136 424 136 q 101 221 182 136 q 19 425 19 306 q 99 507 19 496 l 113 504 l 135 500 l 157 494 l 175 493 q 257 522 219 490 q 294 597 294 553 q 229 703 294 651 l 203 724 q 194 739 194 732 l 196 744 l 207 751 l 226 764 l 243 774 q 272 756 253 774 q 322 703 304 726 l 328 704 l 325 724 q 301 763 325 744 l 279 779 l 313 800 l 336 807 q 378 774 363 793 q 439 654 425 736 q 440 626 440 646 q 378 496 440 547 q 224 444 315 444 l 176 444 l 169 446 l 161 447 q 153 450 154 449 q 205 288 153 356 q 336 221 257 221 q 481 318 442 221 l 524 285 z "},"":{"ha":1035,"x_min":-8,"x_max":1063,"o":"m 1063 732 l 478 732 l 449 775 l 1063 775 l 1063 732 m 1031 214 l 1001 188 l 953 264 l 946 264 l 974 165 l 939 146 l 826 369 q 631 535 743 535 l 607 531 l 586 518 l 572 500 l 568 479 q 622 393 568 419 l 658 388 l 671 388 l 685 390 l 697 394 l 710 400 l 722 407 l 735 415 l 758 436 l 768 421 l 772 403 q 751 368 772 383 l 729 351 l 701 340 l 701 333 l 725 335 l 758 346 q 753 315 758 328 l 744 297 q 617 256 693 256 q 528 296 565 256 q 500 342 514 314 q 492 396 492 367 q 519 507 492 457 l 483 522 q 343 372 454 424 q 197 332 274 340 q 535 164 361 194 l 513 132 q 497 122 504 124 l 469 128 q 435 144 456 132 q 483 101 440 117 l 465 81 q 449 74 460 76 q 8 306 168 172 l 33 342 q 50 354 39 347 l 67 339 l 90 319 l 103 310 l 113 306 l 121 313 l 101 331 l 86 350 l 76 368 l 72 388 l 99 425 q 169 382 129 388 q 338 475 293 382 q 351 535 351 504 q 340 588 351 565 q 257 664 319 642 q 197 674 224 675 l 179 672 l 163 668 l 182 696 l 199 715 l 213 726 l 225 731 l 253 731 q 322 711 274 726 l 331 718 l 290 747 q 260 760 275 758 l 286 774 l 322 779 q 350 771 336 779 q 378 754 361 768 l 392 743 l 407 731 l 435 700 q 492 569 492 638 l 549 551 q 688 619 608 619 q 790 597 740 619 q 861 538 839 574 q 897 479 872 528 l 1031 214 m 169 775 l 142 732 l -8 732 l -8 775 l 169 775 z "},"":{"ha":0,"x_min":-612,"x_max":-36,"o":"m -36 -144 l -78 -171 l -142 -117 l -156 -122 l -115 -171 l -156 -212 l -375 -11 l -571 -179 l -612 -136 l -361 75 l -276 75 l -36 -144 z "},"":{"ha":0,"x_min":-722,"x_max":-29,"o":"m -29 -244 q -132 -394 -29 -339 q -319 -440 -217 -440 q -556 -381 -449 -440 q -722 -217 -664 -321 l -682 -169 q -596 -258 -665 -232 l -592 -253 q -644 -142 -644 -218 l -583 -92 q -488 -299 -583 -212 q -265 -385 -393 -385 q -163 -353 -215 -385 q -111 -286 -111 -322 q -121 -265 -111 -275 l -143 -247 q -176 -235 -158 -239 l -215 -231 l -247 -233 q -281 -244 -261 -235 l -314 -261 l -347 -286 q -285 -169 -339 -215 l -239 -169 q -204 -172 -215 -169 l -178 -176 q -161 -183 -167 -179 l -154 -176 q -243 -142 -164 -162 l -225 -129 l -210 -118 l -185 -111 l -167 -108 q -69 -149 -110 -108 q -29 -244 -29 -181 z "},"":{"ha":424,"x_min":-21,"x_max":451,"o":"m 443 732 l -21 732 l -21 775 l 443 775 l 443 732 m 451 565 l 367 565 q 185 419 232 536 q 171 346 171 385 q 256 222 171 260 q 310 213 285 213 l 299 185 l 286 163 l 272 149 q 261 144 268 144 q 228 153 249 144 l 179 179 l 171 174 q 242 117 190 133 l 210 94 q 185 88 201 90 q 42 239 85 124 q 32 311 32 281 q 99 467 32 396 q 269 564 167 538 l 32 565 l 32 621 l 451 621 l 451 565 z "},"":{"ha":479,"x_min":-19,"x_max":517,"o":"m 496 732 l -19 732 l -19 775 l 496 775 l 496 732 m 517 313 l 125 89 l 97 146 l 253 236 q 357 465 357 356 q 351 500 357 488 l 339 529 q 293 556 324 551 q 171 461 204 556 q 160 403 160 429 l 160 382 q 163 368 160 372 l 110 394 q 92 417 93 407 l 92 431 q 94 447 92 442 l 97 461 l 103 476 l 118 506 q 140 535 125 519 q 56 436 92 513 l 35 456 l 19 474 l 8 490 l 0 507 q 267 654 101 654 q 380 598 333 654 q 426 465 426 542 q 364 292 426 379 l 517 383 l 517 313 z "},"":{"ha":722,"x_min":65,"x_max":626,"o":"m 626 383 l 65 383 l 65 467 l 626 467 l 626 383 z "},"":{"ha":793,"x_min":118,"x_max":674,"o":"m 482 482 l 511 421 l 588 258 q 574 244 583 249 l 574 238 q 564 230 574 236 q 554 222 554 224 q 560 208 554 218 q 526 183 556 183 q 490 226 518 183 l 399 368 l 207 69 q 156 57 190 57 q 134 77 147 57 q 121 107 121 97 q 124 122 121 113 q 124 142 128 136 q 118 149 118 147 q 142 196 118 153 l 164 236 q 331 457 215 328 l 343 471 l 271 669 q 260 701 260 699 q 272 722 260 707 l 279 728 q 286 731 282 731 q 301 722 290 731 q 328 736 311 725 q 336 742 331 742 q 354 725 346 742 l 428 579 l 453 608 l 500 663 q 593 765 590 765 q 628 747 606 765 l 638 757 q 649 767 644 767 q 665 744 646 767 q 674 731 674 735 q 631 676 668 726 l 482 482 z "},"":{"ha":0,"x_min":-493,"x_max":136,"o":"m -71 1040 q -90 990 -71 1015 l -112 975 l -139 969 l -167 974 q -190 989 -179 978 l -206 1013 l -210 1040 l -206 1067 q -167 1104 -197 1092 l -139 1110 q -76 1067 -100 1118 l -71 1040 m 136 1042 q -94 836 74 867 q -139 832 -117 832 q -358 881 -262 832 q -493 1018 -453 931 l -453 1056 q -389 983 -425 1000 l -410 1038 l -417 1082 l -382 1101 l -361 1110 q -217 911 -339 961 q -139 894 -176 894 q 1 952 -61 894 q 96 1110 64 1010 l 136 1042 z "},"":{"ha":0,"x_min":-678,"x_max":-156,"o":"m -156 -167 q -337 -269 -224 -249 q -419 -278 -383 -278 q -560 -249 -494 -278 q -658 -174 -626 -221 q -678 -110 -678 -146 q -578 32 -678 -22 q -400 76 -496 76 l -401 22 q -482 11 -453 22 q -614 -110 -614 -22 q -558 -185 -614 -156 q -462 -208 -514 -208 q -290 -125 -354 -208 q -258 -68 -276 -107 l -219 -104 q -282 -181 -236 -160 l -283 -186 l -254 -182 l -231 -169 l -208 -150 l -192 -124 q -175 -137 -182 -128 l -156 -167 z "},"":{"ha":232,"x_min":33,"x_max":174,"o":"m 174 683 q 132 631 174 643 l 104 628 q 54 647 71 631 l 39 669 l 33 697 q 118 869 33 818 l 131 858 l 146 850 q 128 835 136 846 l 115 811 l 107 781 l 104 746 l 132 742 l 154 729 q 168 707 163 722 l 174 683 z "},"":{"ha":217,"x_min":60,"x_max":200,"o":"m 200 806 q 115 633 200 685 l 103 644 l 88 653 q 106 668 97 657 l 118 692 l 126 722 l 129 757 l 101 761 l 79 774 q 65 796 71 781 l 60 819 q 101 872 60 860 l 129 875 q 179 856 163 872 l 194 833 l 200 806 z "},"":{"ha":319,"x_min":114,"x_max":285,"o":"m 285 775 l 264 299 l 222 299 l 215 369 l 207 369 l 193 285 l 138 285 l 117 760 l 179 768 l 188 704 l 193 704 l 215 775 l 285 775 m 269 143 q 244 94 269 117 l 218 79 l 190 74 l 161 78 q 119 117 132 90 l 114 143 q 190 221 114 208 q 219 215 206 224 q 269 143 269 197 z "},"":{"ha":778,"x_min":72,"x_max":743,"o":"m 383 643 q 350 558 383 601 l 313 533 l 268 524 q 183 554 214 524 l 157 593 l 149 643 l 156 688 q 218 749 169 729 l 268 758 q 313 749 292 763 q 374 688 357 735 l 383 643 m 743 771 l 160 -4 l 131 32 l 218 132 l 214 140 l 110 58 l 72 111 l 735 822 l 743 771 m 688 188 q 654 103 688 146 l 617 78 l 572 68 q 488 99 518 68 l 461 138 l 453 188 l 460 232 q 522 293 474 274 l 572 303 q 617 293 596 307 q 678 232 661 279 l 688 188 z "},"":{"ha":646,"x_min":-14,"x_max":660,"o":"m 660 732 l 579 732 l 579 579 l 531 579 l 517 636 l 508 636 l 497 565 l 440 565 q 321 613 417 613 q 174 532 215 613 q 160 479 160 506 q 251 343 160 379 q 307 332 279 332 q 411 370 368 332 q 454 465 454 408 l 508 467 l 508 443 l 507 425 l 503 410 l 497 396 l 503 389 q 544 458 521 389 l 567 451 q 582 449 576 451 l 593 444 l 601 440 l 606 435 l 607 431 q 513 319 588 368 q 454 293 493 307 q 413 283 443 289 l 413 194 l 328 194 q 206 162 257 194 q 154 79 154 129 q 199 -6 154 29 q 307 -40 244 -40 q 443 24 406 -40 q 454 65 451 38 q 447 97 454 83 q 404 143 438 131 q 369 150 393 147 q 426 179 390 179 q 454 167 436 179 l 497 136 l 508 138 q 475 186 508 165 l 499 196 l 517 199 q 601 74 601 147 q 490 -57 601 -10 q 307 -94 403 -94 q 124 -54 204 -94 q 21 88 21 -3 q 114 207 21 164 q 274 242 189 242 l 274 285 q 95 338 169 285 q 21 472 21 392 q 125 622 21 567 q 314 668 211 668 q 329 669 324 669 q 344 667 333 669 l 376 663 l 407 656 q 440 649 429 653 l 440 732 l -14 732 l -14 775 l 440 775 l 440 794 l 497 794 l 508 704 l 517 704 l 531 789 l 579 789 l 579 775 l 660 775 l 660 732 z "},"":{"ha":800,"x_min":-8,"x_max":811,"o":"m 811 732 l 658 732 l 658 775 l 811 775 l 811 732 m 786 604 q 761 565 786 583 l 735 554 l 707 549 l 678 553 q 636 583 649 563 l 631 604 q 707 667 631 657 q 736 663 725 669 q 786 604 786 649 m 414 732 l -8 732 l -8 775 l 414 775 l 414 732 m 672 421 q 539 271 672 324 q 324 231 438 231 q 127 273 210 231 q 29 388 44 315 l 33 394 l 46 406 l 65 418 l 92 432 l 93 399 l 97 376 l 113 376 q 140 449 113 438 l 172 456 l 204 460 l 211 457 l 217 454 q 183 399 183 428 q 285 279 183 314 q 350 269 313 269 q 479 293 418 269 q 561 382 561 325 q 279 510 561 446 q 169 543 210 525 l 144 554 q 126 565 132 560 l 115 576 l 113 588 q 204 671 113 642 l 267 690 l 354 710 l 413 726 q 469 767 464 742 l 463 792 l 533 792 q 526 764 533 776 l 506 728 l 511 729 q 574 801 574 751 l 617 803 q 631 774 631 794 q 619 747 631 760 q 546 699 603 721 l 490 683 l 319 654 q 253 622 253 643 q 261 608 253 617 l 288 599 l 385 582 l 475 565 q 599 519 542 553 q 672 421 672 476 m 542 -32 q 529 -44 542 -44 l 507 -44 l 501 -39 l 499 -25 l 497 -12 q 492 -35 492 -33 q 476 -51 486 -49 l 451 -51 l 451 253 q 481 257 460 256 q 492 236 489 251 l 494 222 q 511 260 501 260 l 542 264 l 542 -32 m 381 125 q 329 8 381 56 q 206 -39 278 -39 q 112 -7 150 -39 q 74 72 74 25 l 78 79 l 90 89 l 121 107 q 132 68 121 96 q 171 125 135 113 l 225 143 q 197 117 199 119 q 179 85 182 101 l 176 65 q 196 15 176 36 q 243 -7 215 -7 q 299 17 278 -7 q 319 79 319 42 q 297 148 319 115 q 242 194 275 181 q 153 204 222 203 q 186 228 171 219 q 204 232 190 229 q 283 208 226 238 q 236 240 278 215 l 263 247 l 278 249 q 351 203 322 238 q 381 125 381 169 z "},"":{"ha":0,"x_min":-806,"x_max":-176,"o":"m -383 1040 q -403 990 -383 1015 l -425 975 l -451 969 l -479 974 q -503 989 -492 978 l -518 1013 l -522 1040 l -518 1067 q -479 1104 -510 1092 l -451 1110 q -389 1067 -412 1118 l -383 1040 m -176 1042 q -407 836 -239 867 q -451 832 -429 832 q -670 881 -575 832 q -806 1018 -765 931 l -765 1056 q -701 983 -737 1000 l -722 1038 l -729 1082 l -694 1101 l -674 1110 q -529 911 -651 961 q -451 894 -489 894 q -311 952 -374 894 q -217 1110 -249 1010 l -176 1042 z "},"":{"ha":676,"x_min":-8,"x_max":711,"o":"m 689 732 l 646 732 l 646 775 l 689 775 l 689 732 m 382 732 l -8 732 l -8 775 l 382 775 l 382 732 m 711 438 l 689 425 l 668 415 l 646 408 l 621 403 l 635 375 l 640 340 q 525 236 640 278 q 360 199 449 208 q 454 153 408 171 l 621 88 l 583 39 l 493 81 l 488 67 l 569 25 l 542 -11 l 11 188 l 46 236 l 94 214 l 101 222 l 40 271 l 74 326 q 304 235 201 235 q 479 318 479 264 q 397 381 479 347 l 356 397 l 283 425 q 156 478 226 447 q 108 521 111 497 q 154 585 108 557 l 207 617 l 274 646 l 339 672 q 389 699 372 686 q 431 744 424 719 l 431 775 l 488 775 q 444 689 488 740 l 458 690 q 485 700 474 690 l 504 722 q 517 753 513 735 l 521 788 l 583 789 l 589 785 l 594 778 l 597 765 l 599 753 q 558 699 599 732 l 513 671 l 454 646 l 397 626 l 363 614 q 292 564 294 589 l 296 553 l 311 544 l 340 536 q 367 525 351 531 l 417 507 l 564 451 q 711 507 638 451 l 711 438 z "},"":{"ha":722,"x_min":-18,"x_max":735,"o":"m 735 732 l 614 732 l 614 579 l 567 579 l 553 650 l 544 650 l 531 565 l 474 565 q 335 606 439 606 q 281 590 304 606 q 196 410 196 547 q 272 240 196 290 q 321 226 293 226 q 419 273 378 226 q 471 393 460 319 q 474 436 474 413 l 538 438 q 540 396 538 410 l 553 360 l 558 361 l 578 467 l 657 467 q 614 213 614 369 q 635 29 614 71 l 586 31 q 553 131 553 100 l 544 132 q 567 1 544 39 l 501 3 q 468 263 468 61 q 399 192 449 222 q 299 160 349 163 q 278 158 274 158 q 119 232 183 158 q 54 410 54 306 q 128 584 54 511 q 321 660 203 657 q 474 613 415 663 l 474 732 l -18 732 l -18 775 l 524 775 l 544 690 l 553 690 l 567 789 l 614 789 l 614 775 l 735 775 l 735 732 m 450 167 l 10 -33 l 1 4 l 107 47 l 107 56 l -4 33 l -12 88 l 450 167 z "},"":{"ha":667,"x_min":-14,"x_max":701,"o":"m 701 1057 l 667 1022 l 581 1058 l 575 1050 l 660 994 l 625 960 q 457 1043 544 1043 q 394 1022 425 1043 q 353 972 364 1001 q 346 931 346 954 q 372 867 346 896 q 435 828 397 839 q 492 821 458 821 l 415 753 q 351 782 382 757 q 306 839 319 807 l 293 868 q 283 931 283 907 q 338 1050 283 1001 q 471 1099 393 1099 l 490 1099 q 701 1057 636 1099 m 688 732 l 626 732 l 626 775 l 688 775 l 688 732 m 386 732 l -14 732 l -14 775 l 313 775 l 386 732 m 663 22 l 635 -28 l 572 8 l 567 -7 l 635 -54 l 600 -96 l 18 142 l 46 189 l 101 169 l 110 175 l 39 217 l 68 265 l 294 175 l 346 175 l 381 182 q 488 238 451 196 q 503 278 503 254 q 449 333 503 303 l 385 360 l 299 386 q 214 414 258 399 q 88 513 89 457 q 129 586 86 550 q 176 615 154 607 l 239 639 l 328 664 l 385 685 q 440 735 438 704 l 435 764 l 503 764 q 497 732 503 749 l 483 700 l 489 701 q 539 776 539 724 l 586 778 q 600 763 600 775 l 600 722 q 560 678 600 697 l 514 656 l 461 639 l 382 618 l 333 607 q 239 556 244 586 q 322 503 239 529 l 363 490 l 436 471 q 517 443 475 461 q 626 369 600 408 q 642 333 639 354 q 563 187 642 247 q 379 126 485 126 l 663 22 z "},"":{"ha":746,"x_min":82,"x_max":654,"o":"m 439 606 l 506 688 q 649 738 546 738 l 654 725 l 576 633 l 403 404 l 283 218 l 254 168 q 236 144 250 158 q 189 140 226 140 q 152 144 160 140 q 132 174 144 149 q 82 336 82 276 q 101 365 82 351 q 165 392 139 392 q 189 364 176 392 l 206 325 q 224 294 218 294 q 246 319 229 294 l 439 606 z "},"":{"ha":556,"x_min":24,"x_max":482,"o":"m 482 504 q 453 471 482 482 l 406 460 q 321 429 356 449 q 461 396 372 421 q 478 374 478 389 q 456 324 478 353 q 417 294 435 294 q 294 374 425 294 q 306 312 296 364 q 317 242 317 260 q 279 201 317 201 q 203 238 203 201 q 233 374 229 314 q 144 306 210 356 q 76 283 115 283 q 43 305 61 283 q 25 342 25 326 q 88 375 25 357 q 204 418 164 397 q 38 463 139 435 q 24 482 24 467 q 46 528 24 496 q 81 560 68 560 q 235 475 103 560 q 219 560 235 496 q 203 639 203 624 q 238 660 203 660 q 310 613 310 660 q 300 540 310 593 q 289 474 289 483 q 360 547 308 483 q 425 603 404 603 q 472 539 447 603 q 482 504 482 514 z "},"":{"ha":1028,"x_min":-42,"x_max":1042,"o":"m 1042 732 l 317 732 l 339 775 l 1042 775 l 1042 732 m 976 108 l 957 90 l 949 83 l 931 69 l 919 65 l 906 81 l 892 114 l 883 132 l 869 172 l 863 174 q 871 106 863 133 q 876 88 871 101 q 875 79 876 81 l 863 74 l 843 67 l 821 65 q 813 71 814 68 l 807 93 l 800 119 l 794 142 l 764 283 l 761 307 l 757 361 q 738 431 751 426 q 661 290 693 431 l 646 222 l 625 101 q 618 90 621 93 l 597 88 l 563 89 l 551 97 l 544 128 l 539 165 l 535 199 l 526 200 l 514 75 l 458 75 l 458 326 q 397 213 444 261 q 286 153 350 164 q 249 150 271 150 q 90 256 151 150 q 39 450 39 344 q 101 767 39 656 l 146 776 l 169 779 q 139 675 135 724 l 140 657 q 143 640 142 647 q 219 779 176 757 l 251 792 l 297 801 q 192 450 192 674 q 215 317 192 381 q 303 226 246 233 q 439 379 390 226 q 458 479 449 410 l 458 697 l 464 703 l 500 704 q 508 697 507 700 l 514 685 l 519 635 l 526 592 l 535 593 l 538 619 l 540 660 q 543 689 542 685 q 560 711 547 706 l 578 715 l 597 717 l 597 228 q 661 438 614 336 q 807 578 726 578 l 817 575 q 828 568 825 571 l 836 557 l 847 540 q 865 499 854 529 l 876 450 l 903 319 l 926 222 q 976 108 946 142 m 44 775 l 31 732 l -42 732 l -42 775 l 44 775 z "},"":{"ha":0,"x_min":-746,"x_max":254,"o":"m 118 985 q 99 935 118 960 l 76 919 l 50 914 q 0 932 18 914 l -14 956 l -19 985 q 0 1033 -19 1014 l 21 1047 l 50 1053 q 76 1047 65 1056 q 113 1011 103 1039 l 118 985 m 254 1110 l 219 1075 l 133 1111 l 128 1103 l 213 1047 l 178 1013 q 10 1096 97 1096 q -51 1075 -21 1096 q -93 1026 -82 1054 q -100 983 -100 1010 q -59 904 -100 935 q 44 874 -18 874 l -32 806 q -126 865 -90 815 q -162 983 -162 914 q -108 1103 -162 1056 q 24 1151 -53 1151 l 43 1151 q 254 1110 189 1151 m -53 790 l -96 764 l -131 764 q -428 1068 -343 914 l -379 1097 l -332 1028 l -326 1028 l -346 1111 l -290 1111 q -53 790 -204 875 m -193 763 l -304 764 q -746 1018 -624 871 l -706 1061 l -674 1029 q -594 978 -640 996 l -582 986 q -669 1088 -629 1021 l -610 1111 q -193 763 -421 846 z "},"":{"ha":661,"x_min":-14,"x_max":681,"o":"m 681 732 l 565 732 l 565 579 l 508 579 l 503 642 l 494 642 l 482 565 l 426 565 l 413 592 q 350 629 397 614 l 307 635 q 224 607 254 635 q 189 542 189 581 l 193 521 l 207 503 l 228 486 l 258 472 l 279 478 l 314 483 l 360 486 l 413 488 q 560 460 488 489 q 650 354 650 422 l 531 361 q 510 406 531 383 q 464 437 490 429 q 413 444 438 444 q 317 429 358 444 q 167 325 217 403 q 146 256 146 292 q 258 81 146 129 q 328 65 294 65 q 482 101 422 65 l 493 106 l 503 108 l 514 106 l 532 96 l 564 75 l 593 57 q 328 1 476 1 q 204 19 257 1 q 31 161 83 61 q 7 256 7 206 q 174 450 7 389 q 124 468 146 457 l 83 497 q 47 564 47 531 l 51 586 l 65 608 l 85 628 l 111 644 q 285 675 178 675 l 326 675 q 426 654 397 675 l 426 732 l -14 732 l -14 775 l 426 775 l 426 789 l 489 789 l 503 704 l 508 704 l 517 803 l 544 803 l 560 793 l 565 775 l 681 775 l 681 732 z "},"":{"ha":1056,"x_min":-25,"x_max":1081,"o":"m 1081 732 l -25 732 l -25 775 l 1081 775 l 1081 732 m 1047 117 l 1004 83 l 985 74 q 971 81 975 78 l 944 124 l 929 150 l 922 146 l 922 125 q 925 110 922 115 l 929 93 l 938 74 l 913 61 l 894 57 l 888 58 l 883 67 q 872 101 882 71 l 863 132 l 854 160 l 847 192 l 843 208 l 840 228 l 836 247 l 832 269 l 818 335 l 814 364 q 775 436 804 429 q 710 343 732 436 l 651 101 l 639 89 l 608 89 l 601 90 l 597 97 l 592 117 l 581 158 l 574 124 l 572 110 l 563 82 q 551 74 558 74 l 510 75 l 510 375 q 388 188 468 260 q 215 117 308 117 q 75 176 131 117 q 19 325 19 236 q 123 567 19 460 q 357 675 226 675 q 503 535 450 675 l 467 508 l 464 521 l 454 536 l 439 550 l 419 564 l 429 531 l 433 479 l 385 451 q 286 592 367 579 q 144 463 183 592 q 132 382 132 421 q 201 238 132 289 q 243 226 217 229 q 415 308 340 226 q 510 507 490 389 l 511 699 q 524 703 519 703 l 558 704 q 567 693 565 699 l 572 668 l 576 639 l 581 619 l 586 621 l 590 644 l 594 671 l 603 699 q 614 711 606 710 l 651 718 l 651 279 q 710 456 669 381 q 846 564 768 564 q 924 469 889 564 q 957 340 946 410 q 1047 117 985 171 m 486 132 l -1 -72 l -10 -35 l 90 28 l 94 17 l -15 -6 l -24 49 l 486 153 l 486 132 z "},"":{"ha":965,"x_min":-10,"x_max":983,"o":"m 983 732 l 592 732 l 592 571 l 543 571 l 529 642 l 524 636 l 515 565 l 453 565 q 419 607 453 588 l 386 621 l 347 626 q 263 606 286 626 q 229 556 229 590 q 232 532 229 540 l 244 514 l 263 500 l 286 493 l 340 503 l 410 507 q 494 499 450 510 q 633 388 633 465 q 557 317 633 336 l 510 311 q 460 303 476 311 l 444 293 l 439 283 q 506 213 439 232 l 551 207 q 733 354 672 207 l 733 697 l 739 704 l 775 704 l 782 697 l 785 693 l 793 664 l 803 635 l 810 636 l 811 654 q 815 693 814 685 q 824 711 818 710 l 833 713 l 847 715 l 853 715 l 860 717 l 872 717 l 872 110 q 858 88 872 88 l 824 89 l 817 93 l 813 108 l 803 158 l 796 160 l 781 75 l 733 75 l 733 257 q 647 174 707 206 l 588 151 l 551 144 l 524 144 q 376 184 438 144 q 314 283 314 224 l 318 304 l 332 322 q 351 335 342 332 l 376 339 l 421 343 l 460 356 q 494 396 492 371 q 461 440 494 422 q 425 453 442 450 l 382 458 q 234 405 296 458 q 172 269 172 351 q 274 121 172 176 q 458 74 360 74 l 458 67 l 457 56 l 450 32 q 447 15 450 21 q 156 90 272 15 q 64 172 97 128 q 33 269 33 224 q 200 465 33 400 q 97 532 128 485 q 90 564 90 549 q 93 586 90 578 l 106 611 l 122 633 l 146 650 q 300 682 207 682 l 346 682 q 453 660 415 682 l 453 732 l -10 732 l -10 775 l 453 775 l 453 794 l 510 794 l 529 704 l 538 704 l 543 789 l 586 789 l 590 782 l 592 775 l 983 775 l 983 732 z "},"":{"ha":653,"x_min":-14,"x_max":667,"o":"m 667 732 l 543 732 l 553 590 l 497 590 l 489 660 l 483 660 l 469 585 l 428 585 q 318 631 374 631 q 189 540 221 631 q 178 485 178 510 q 218 377 178 421 q 318 333 258 333 q 469 429 431 333 l 475 481 l 539 486 l 528 440 l 525 389 l 531 390 l 543 432 l 556 461 q 581 485 564 481 l 621 486 q 593 278 593 400 q 621 26 593 135 l 588 28 l 567 85 l 560 85 l 567 0 l 517 0 l 497 46 l 482 97 l 472 149 l 469 193 q 366 104 440 139 q 206 69 292 69 q 88 101 135 69 q 40 182 40 132 q 86 258 40 218 q 206 306 135 293 q 51 422 100 329 q 40 479 40 453 q 117 629 40 572 q 304 679 194 686 l 374 675 q 414 665 400 674 l 414 732 l -14 732 l -14 775 l 414 775 l 414 796 l 464 796 l 475 708 l 483 708 l 497 796 l 539 796 l 540 775 l 667 775 l 667 732 m 456 278 l 456 340 q 428 314 440 321 l 393 294 l 350 282 l 304 278 q 189 225 228 278 q 178 193 178 210 q 185 169 178 181 l 207 150 l 239 136 l 276 132 q 456 278 399 143 z "},"":{"ha":1144,"x_min":44,"x_max":1104,"o":"m 936 819 q 921 765 936 792 l 903 749 l 882 743 l 858 747 q 840 764 849 751 l 828 789 l 824 819 l 828 847 q 858 889 835 875 l 882 894 q 932 847 914 901 l 936 819 m 1104 821 q 918 599 1054 632 q 882 594 901 594 q 704 648 781 594 q 594 796 628 701 l 628 836 q 679 758 650 776 l 663 817 l 657 864 l 685 885 l 701 894 q 818 679 719 733 q 882 663 849 663 q 1072 894 1015 663 l 1104 821 m 942 139 l 913 110 q 886 96 903 100 q 838 188 850 129 l 824 181 q 858 82 824 125 l 833 61 l 810 54 q 790 61 801 54 l 772 82 l 756 113 l 747 153 l 729 275 l 713 397 q 676 446 706 446 q 653 439 667 446 l 625 418 l 597 386 l 588 372 l 593 361 l 600 340 l 604 318 l 606 297 q 588 213 608 256 q 339 74 519 74 q 144 122 228 74 q 44 249 61 171 l 57 263 l 83 286 l 93 292 q 143 213 101 251 q 132 247 139 218 l 129 311 l 139 318 l 157 331 l 175 342 l 186 346 l 185 333 l 185 317 q 279 124 185 178 q 339 108 306 108 q 454 192 419 108 q 464 240 464 215 q 453 297 464 274 q 403 361 440 335 q 325 388 365 388 q 308 389 314 389 q 290 386 304 389 l 263 374 l 254 404 q 319 436 294 436 l 301 443 l 283 446 l 264 443 l 240 436 l 226 465 q 367 546 311 488 q 424 674 424 604 q 394 754 424 721 q 319 788 365 788 q 219 725 251 788 q 200 649 200 688 q 240 550 200 583 l 192 531 q 157 557 171 540 l 136 592 l 135 569 l 136 553 l 142 538 l 150 521 l 129 517 l 101 515 q 88 526 92 521 l 74 560 l 63 601 l 60 633 q 82 711 57 669 q 247 821 128 788 q 367 836 301 836 q 506 790 450 836 q 563 674 563 744 q 360 464 563 542 l 432 460 q 550 419 500 456 q 594 463 578 450 l 653 507 q 761 544 701 544 q 774 542 771 543 l 786 535 l 797 522 l 810 506 l 829 461 l 844 406 q 942 139 874 222 z "},"":{"ha":800,"x_min":-8,"x_max":811,"o":"m 811 732 l 658 732 l 658 775 l 811 775 l 811 732 m 786 599 q 761 560 786 578 l 735 547 l 707 543 l 678 547 q 636 578 649 557 l 631 599 q 707 661 631 651 q 781 625 753 667 q 786 599 786 613 m 414 732 l -8 732 l -8 775 l 414 775 l 414 732 m 672 414 q 538 265 672 318 q 324 225 435 225 q 128 267 211 225 q 29 381 44 310 l 33 389 l 46 400 l 65 413 l 92 425 l 93 392 l 97 369 l 113 371 q 140 442 113 435 l 172 450 l 204 453 l 211 451 l 217 449 q 183 392 183 422 q 285 274 183 308 q 350 264 314 264 q 479 288 417 264 q 561 375 561 318 q 279 503 561 439 q 169 536 208 519 l 144 547 q 126 560 135 551 l 115 571 l 113 582 q 204 665 113 636 l 267 685 l 354 704 l 413 721 q 469 761 464 736 l 463 786 l 533 786 q 526 758 533 771 l 506 722 l 511 724 q 574 796 574 746 l 617 797 q 631 768 631 789 q 619 742 631 753 q 546 693 599 708 l 490 678 l 383 658 l 319 649 q 253 617 253 639 q 261 603 253 611 l 288 592 l 385 575 l 475 558 q 600 514 547 544 q 672 414 672 471 m 644 -40 l 621 -54 l 613 -58 l 606 -61 q 596 -57 599 -58 l 588 -46 l 582 -39 l 575 -31 q 576 -42 576 -37 l 583 -58 l 568 -65 l 557 -68 l 551 -67 l 547 -61 q 542 -46 546 -56 l 536 -33 l 532 -21 l 528 -7 l 526 0 l 524 8 l 522 17 l 519 26 l 513 54 q 506 81 507 76 q 492 96 500 94 q 461 58 472 96 l 443 0 l 428 -47 l 425 -50 l 422 -51 l 419 -54 l 401 -54 l 394 -50 l 389 -40 l 388 -33 l 386 -35 l 386 -43 l 381 -56 q 372 -60 378 -61 l 346 -60 l 346 58 q 190 -42 293 -42 q 114 -15 147 -42 q 81 51 81 13 l 81 63 q 114 132 81 92 q 251 206 175 206 q 336 140 306 206 l 308 125 q 292 147 308 138 l 294 140 l 297 117 l 264 101 q 256 128 261 118 q 229 160 247 150 q 176 135 203 167 q 149 75 149 104 q 206 11 149 18 q 294 44 256 11 q 346 131 333 78 l 346 229 q 376 232 353 232 q 386 214 386 226 l 388 185 l 392 215 l 396 228 q 404 235 399 235 l 428 239 l 428 57 q 531 157 461 157 q 568 128 547 157 q 594 57 578 108 q 644 -40 610 -15 z "},"":{"ha":758,"x_min":-14,"x_max":772,"o":"m 772 732 l -14 732 l -14 775 l 772 775 l 772 732 m 671 717 l 660 88 l 622 89 l 615 92 l 614 104 l 606 156 l 600 186 l 590 126 l 588 106 q 582 86 585 89 q 567 74 576 75 l 532 75 l 533 699 q 546 703 538 703 l 572 704 q 581 693 579 699 l 588 665 l 593 633 q 600 611 596 618 l 611 676 q 635 713 615 704 l 651 715 l 671 717 m 526 383 q 271 303 369 367 q 183 226 203 260 q 171 158 171 206 q 194 76 171 108 q 256 43 218 43 q 286 50 274 43 l 313 72 q 338 144 338 104 q 296 215 338 199 l 269 221 l 247 218 l 236 215 l 226 213 l 226 218 l 229 225 l 263 256 l 303 283 q 374 226 349 275 l 381 228 q 338 306 381 274 l 358 315 l 389 318 q 465 213 453 318 q 425 95 465 147 q 318 17 385 43 q 226 1 279 1 q 58 89 114 1 q 46 144 46 114 q 219 350 46 269 q 499 425 344 408 q 360 585 439 514 q 297 613 322 613 q 199 582 240 613 q 157 507 157 551 q 160 481 157 490 l 168 461 q 181 449 171 453 l 199 444 q 218 447 211 444 l 233 458 l 243 474 q 247 493 247 482 l 244 507 l 239 522 l 226 536 l 213 550 l 222 557 l 235 567 l 246 575 l 256 578 l 261 574 l 269 561 l 279 544 l 289 529 l 297 531 l 299 538 l 299 544 l 294 569 q 283 592 290 583 l 318 593 q 367 521 367 571 q 351 475 367 494 q 246 413 328 435 q 171 403 210 403 q 33 467 76 403 q 24 507 24 486 q 167 656 24 614 q 256 668 210 668 q 457 564 382 668 l 526 467 l 526 383 z "},"":{"ha":0,"x_min":-886,"x_max":128,"o":"m 128 1072 l 93 1038 l 7 1074 l 1 1065 l 86 1010 l 51 975 q -117 1058 -29 1058 q -179 1038 -149 1058 q -221 988 -210 1017 q -228 946 -228 969 q -202 883 -228 911 q -139 843 -176 854 q -82 836 -115 836 l -158 768 q -203 783 -182 771 l -236 764 l -271 764 q -568 1068 -483 914 l -519 1097 l -472 1028 l -467 1028 l -486 1111 l -431 1111 q -258 838 -364 929 q -268 854 -262 844 l -281 883 q -290 946 -290 922 q -235 1065 -290 1017 q -103 1114 -181 1114 l -83 1114 q 128 1072 63 1114 m -333 763 l -444 764 q -886 1018 -764 871 l -846 1061 l -814 1029 q -735 978 -781 996 l -722 986 q -810 1088 -769 1021 l -750 1111 q -333 763 -561 846 z "},"":{"ha":757,"x_min":67,"x_max":656,"o":"m 656 383 l 404 383 l 404 132 l 319 132 l 319 383 l 67 383 l 67 465 l 319 465 l 319 718 l 404 718 l 404 465 l 656 465 l 656 383 z "},"":{"ha":646,"x_min":-28,"x_max":663,"o":"m 663 732 l 579 732 l 579 579 l 531 579 l 517 636 l 508 636 l 497 565 l 440 565 q 321 613 417 613 q 174 532 215 613 q 160 479 160 506 q 251 343 160 379 q 307 332 279 332 q 411 370 368 332 q 454 465 454 408 l 508 467 l 508 443 l 507 425 l 503 410 l 497 396 l 503 389 q 544 458 521 389 l 567 451 q 582 449 576 451 l 593 444 l 601 440 l 606 435 l 607 431 q 513 319 588 368 q 454 293 493 307 q 413 283 443 289 l 413 194 l 328 194 q 206 162 257 194 q 154 79 154 129 q 199 -6 154 29 q 307 -40 244 -40 q 443 24 406 -40 q 454 65 451 38 q 447 97 454 83 q 404 143 438 131 q 369 150 393 147 q 426 179 390 179 q 454 167 436 179 l 497 136 l 508 138 q 475 186 508 165 l 499 196 l 517 199 q 601 74 601 147 q 490 -57 601 -10 q 307 -94 403 -94 q 124 -54 204 -94 q 21 88 21 -3 q 114 207 21 164 q 274 242 189 242 l 274 285 q 95 338 169 285 q 21 472 21 392 q 125 622 21 567 q 314 668 211 668 q 329 669 324 669 q 344 667 333 669 l 376 663 l 407 656 q 440 649 429 653 l 440 732 l -28 732 l -28 775 l 440 775 l 440 794 l 497 794 l 508 704 l 517 704 l 531 789 l 579 789 l 579 775 l 663 775 l 663 732 z "},"":{"ha":744,"x_min":167,"x_max":599,"o":"m 599 392 l 167 393 l 167 468 l 596 468 l 599 392 m 599 239 l 167 240 l 167 317 l 596 317 l 599 239 z "},"":{"ha":432,"x_min":31,"x_max":324,"o":"m 324 461 q 281 357 324 400 q 176 314 238 314 q 73 357 115 314 q 31 461 31 400 q 73 565 31 522 q 176 607 115 607 q 281 565 238 607 q 324 461 324 522 z "},"":{"ha":1083,"x_min":-8,"x_max":1097,"o":"m 1097 732 l -8 732 l -8 775 l 1097 775 l 1097 732 m 1078 115 l 1040 86 l 1025 76 l 1015 74 q 1001 81 1006 78 l 986 106 l 976 121 l 958 150 l 953 146 q 956 108 953 121 l 967 74 l 943 61 l 925 57 l 918 58 l 914 67 q 903 101 913 71 l 893 132 l 885 160 l 878 192 l 874 208 l 871 228 l 867 247 l 863 269 l 849 335 l 844 364 q 806 436 835 429 q 740 343 763 436 l 708 210 l 681 101 l 676 96 l 672 92 l 668 89 l 639 89 l 629 94 l 621 117 l 614 140 l 610 158 l 603 126 l 601 110 l 593 82 q 582 74 589 74 l 540 75 l 540 375 q 420 186 499 257 q 246 115 342 115 q 107 178 164 115 q 50 325 50 240 l 50 351 q 135 546 50 449 q 325 668 221 643 q 386 675 354 675 q 504 593 454 675 q 533 535 521 567 l 497 508 q 449 564 497 532 l 458 531 l 463 479 l 414 451 q 399 506 410 482 q 315 592 376 582 q 218 544 260 592 q 165 426 176 496 q 163 382 163 408 q 194 271 163 318 q 274 226 226 232 q 443 307 368 226 q 540 507 518 388 l 542 699 q 554 703 550 703 l 588 704 q 596 693 594 699 l 601 668 l 606 639 l 610 619 l 617 621 l 621 644 l 625 671 l 633 699 q 644 711 636 710 l 681 718 l 681 279 q 740 456 699 378 q 876 564 799 564 q 939 500 903 564 l 967 428 q 988 339 978 400 q 1078 115 1017 167 m 857 -169 q 672 -272 789 -251 q 592 -281 625 -281 q 426 -242 503 -281 q 333 -112 333 -194 q 415 18 333 -37 q 556 69 475 58 q 611 74 586 74 l 611 19 q 529 8 557 19 q 397 -112 397 -25 q 439 -181 397 -150 q 526 -211 481 -211 l 549 -211 q 719 -129 651 -211 q 753 -71 742 -103 l 793 -107 q 729 -183 776 -164 l 729 -189 l 756 -185 l 781 -172 l 801 -153 l 821 -126 q 838 -140 831 -131 l 857 -169 z "},"":{"ha":986,"x_min":-21,"x_max":996,"o":"m 996 732 l 460 732 l 488 717 l 510 697 q 525 674 519 689 l 531 649 q 321 493 531 553 q 432 482 383 493 q 465 472 456 476 q 544 425 518 457 q 601 482 579 464 l 660 526 q 768 564 708 564 q 781 561 778 563 l 793 554 l 804 542 l 817 525 l 836 481 l 851 425 q 949 158 881 242 l 919 129 q 893 115 910 119 q 844 207 857 149 l 831 200 q 865 101 831 144 l 840 81 l 817 74 q 797 81 808 74 l 779 101 l 763 132 l 754 172 l 736 294 l 719 417 q 683 465 713 465 q 660 458 674 465 l 632 438 l 604 406 l 579 368 l 593 328 l 599 283 q 518 135 599 196 q 321 74 438 74 q 0 221 63 74 q 40 269 14 253 q 97 213 46 235 l 103 222 q 68 297 68 235 l 82 307 l 106 322 l 125 333 l 146 346 q 251 138 146 201 q 321 122 285 122 q 419 170 379 122 q 460 283 460 218 q 406 392 460 347 q 278 436 353 436 q 229 433 243 436 l 188 425 l 176 446 l 174 465 l 189 472 l 211 481 l 233 488 l 250 493 l 174 503 l 174 550 l 225 550 l 254 556 q 383 649 383 581 q 278 731 383 713 l -21 732 l -21 775 l 996 775 l 996 732 z "},"":{"ha":972,"x_min":-10,"x_max":986,"o":"m 986 732 l 842 732 l 842 579 l 793 579 l 785 650 l 779 650 l 765 565 l 701 565 q 617 613 674 613 q 499 529 543 613 q 490 479 490 508 q 528 381 490 421 q 624 340 565 340 q 757 450 731 340 q 771 493 757 490 l 813 494 l 807 438 l 821 438 l 829 456 l 847 501 l 856 507 l 911 508 l 901 463 l 894 415 l 890 361 l 889 297 l 889 200 l 890 122 q 911 15 892 47 l 869 17 l 864 25 l 861 36 l 853 71 l 847 101 l 842 103 l 847 3 l 793 -3 q 772 129 781 49 q 769 224 772 150 q 765 318 765 297 q 725 294 753 307 q 665 283 686 283 l 393 200 l 408 165 l 413 147 l 415 139 l 415 126 q 332 11 415 49 q 281 1 303 1 q 193 31 236 1 q 165 63 178 44 q 156 101 158 78 q 267 213 156 175 l 226 313 l 210 346 q 190 372 201 363 l 169 390 l 158 394 l 147 396 q 128 386 136 396 l 122 360 q 149 315 122 333 l 178 301 l 213 297 l 176 243 q 107 283 136 243 l 100 279 q 142 226 100 250 q 85 199 124 199 q 61 208 71 199 l 39 231 l 28 250 l 21 267 l 17 282 l 15 297 l 19 322 l 32 347 l 53 372 l 85 400 q 226 450 157 450 q 324 382 294 450 l 379 250 l 540 299 q 468 310 497 299 q 351 472 351 354 l 356 511 l 368 549 l 388 582 l 415 610 q 589 660 481 660 q 701 640 674 660 l 701 732 l -10 732 l -10 775 l 701 775 l 701 794 l 757 794 l 771 704 l 779 704 l 793 789 l 842 789 l 842 775 l 986 775 l 986 732 z "},"":{"ha":326,"x_min":-312,"x_max":594,"o":"m 594 1200 l 560 1165 l 474 1201 l 468 1193 l 553 1138 l 518 1103 q 350 1186 438 1186 q 288 1165 318 1186 q 246 1115 257 1144 q 239 1074 239 1097 q 265 1010 239 1039 q 328 971 290 982 q 385 964 351 964 l 308 896 q 244 925 275 900 q 199 982 213 950 l 186 1011 q 176 1074 176 1050 q 231 1193 176 1144 q 364 1242 286 1242 l 383 1242 q 594 1200 529 1242 m 360 732 l 0 732 l 0 775 l 190 775 l 176 785 l 147 814 l 133 832 l 106 869 l 79 913 q 15 994 49 963 q -10 1015 7 1003 q -117 1053 -58 1053 q -199 994 -172 1053 q -207 963 -204 982 q -174 877 -207 911 q -89 843 -140 843 l -107 833 l -126 822 l -137 817 l -144 815 l -162 822 l -201 843 q -187 815 -197 828 l -167 801 l -211 781 q -285 835 -254 793 q -306 876 -292 844 q -312 921 -312 900 q -273 1026 -312 979 q -165 1096 -233 1074 q -75 1110 -126 1108 q 33 1081 -14 1111 q 111 1025 69 1065 q 136 997 121 1014 l 189 940 q 242 899 208 919 q 338 864 297 864 q 281 815 322 815 q 249 826 269 815 l 199 864 l 190 865 q 247 793 193 833 l 213 775 l 360 775 l 360 732 m 247 717 l 244 94 q 239 89 242 89 l 232 88 l 199 89 l 189 92 l 182 107 l 178 143 l 176 207 l 169 208 l 156 75 l 107 75 l 107 697 l 114 704 l 150 704 q 161 694 158 699 l 169 672 l 174 639 l 176 597 l 185 599 l 188 624 l 190 663 q 194 692 192 683 q 210 711 199 708 l 228 715 l 247 717 z "},"":{"ha":757,"x_min":-14,"x_max":764,"o":"m 764 732 l 569 732 l 571 572 l 517 572 l 508 635 l 503 629 l 489 558 l 432 558 q 421 579 429 571 l 399 597 l 367 608 l 328 613 l 311 613 q 229 565 265 613 q 222 535 222 551 q 246 496 222 517 l 272 481 l 306 472 l 375 482 l 432 486 q 490 485 463 489 q 713 332 692 460 l 713 88 l 656 88 l 642 144 l 636 144 l 628 74 l 571 74 l 571 319 l 404 272 q 424 265 415 272 l 439 253 l 449 232 q 453 206 453 224 q 431 157 453 176 l 406 142 l 376 138 q 279 219 289 138 q 413 332 279 308 l 565 376 l 558 388 l 553 400 q 432 429 503 429 q 254 392 333 429 q 153 256 153 343 q 235 99 153 161 q 432 36 318 36 l 418 -4 q 163 54 285 -4 q 13 249 13 126 q 208 443 13 365 q 117 481 153 449 q 82 557 82 513 q 135 631 82 601 q 257 661 189 661 q 432 633 382 661 l 432 732 l -14 732 l -14 775 l 432 775 l 432 790 l 489 790 l 508 697 l 517 697 l 524 790 l 568 790 l 568 775 l 764 775 l 764 732 z "},"":{"ha":1021,"x_min":-56,"x_max":1032,"o":"m 1032 732 l 339 732 l 361 775 l 1032 775 l 1032 732 m 996 108 l 979 92 l 964 78 l 951 68 l 942 65 q 921 99 933 72 q 892 172 910 110 l 886 174 l 885 161 l 885 136 l 888 122 l 900 88 l 897 78 l 886 74 l 865 67 l 843 65 q 835 71 836 68 l 828 93 l 821 119 l 817 140 l 799 217 l 786 283 l 783 307 l 779 361 q 775 400 778 388 q 758 431 769 429 q 694 338 715 431 l 674 247 l 647 101 q 640 90 643 93 l 619 88 l 585 89 l 574 97 l 567 128 l 561 165 l 557 199 l 549 200 l 535 75 l 481 75 l 481 326 q 405 201 465 253 q 269 150 344 150 q 111 256 172 150 q 60 450 60 344 q 124 767 60 660 l 168 776 l 192 779 q 168 725 176 749 q 161 671 161 694 l 161 657 l 164 640 q 243 779 193 753 l 275 792 l 319 801 q 219 557 244 715 l 214 450 q 246 290 210 364 q 325 226 275 232 q 461 379 415 226 q 481 479 471 411 l 481 697 l 486 704 l 521 704 q 528 697 526 700 l 535 685 l 542 635 l 549 592 l 557 593 l 560 619 l 563 660 q 565 689 564 685 q 581 711 569 706 l 599 715 l 619 717 l 619 228 q 683 438 636 336 q 829 578 749 578 l 839 575 q 850 568 847 571 l 858 557 l 869 542 q 888 500 878 528 l 900 450 l 924 318 l 947 221 l 969 153 q 996 108 982 126 m 67 775 l 53 732 l -7 732 l -7 775 l 67 775 m 438 125 l -42 -72 l -50 -35 l 54 8 l 54 17 l -56 -7 l -56 69 l 424 153 l 438 125 z "},"":{"ha":572,"x_min":21,"x_max":511,"o":"m 511 797 l 133 -96 l 96 -68 l 157 50 l 150 58 l 69 -47 l 21 -6 l 492 844 l 511 797 z "},"":{"ha":1222,"x_min":-21,"x_max":1235,"o":"m 1235 732 l 564 732 l 536 775 l 1235 775 l 1235 732 m 1124 717 l 1119 93 q 1110 88 1113 88 l 1074 89 q 1067 96 1068 93 l 1061 121 l 1057 150 l 1053 172 l 1047 138 l 1042 106 q 1038 86 1039 89 q 1025 74 1035 78 l 983 75 l 983 438 l 967 390 q 906 283 949 339 q 874 246 883 254 q 815 207 849 221 q 725 67 794 119 q 564 15 656 15 q 3 306 353 15 l 28 347 l 33 351 l 40 354 l 61 343 l 117 311 l 122 326 l 54 390 l 110 438 q 215 368 164 368 q 289 379 260 368 q 411 535 411 426 q 400 588 411 565 q 350 650 388 625 q 269 675 313 675 q 238 672 253 675 l 215 668 q 250 703 232 689 l 292 725 q 361 713 335 725 q 425 675 396 701 q 360 753 418 725 l 408 772 l 439 779 q 550 592 550 704 q 450 391 550 471 q 207 311 350 311 q 635 117 450 117 l 682 121 q 724 136 706 122 q 774 193 763 156 l 757 189 l 747 188 l 739 186 l 726 186 q 575 281 626 186 q 564 340 564 310 q 648 583 564 483 q 858 682 732 682 q 925 653 904 682 q 963 578 949 635 q 954 549 963 565 l 929 521 q 886 597 921 574 q 900 507 900 579 l 896 497 l 872 476 l 858 465 l 860 476 l 860 490 q 839 563 860 542 q 788 592 828 585 q 749 576 765 592 q 690 396 690 535 q 788 283 690 294 q 943 449 889 283 q 983 696 983 571 l 986 700 l 992 703 l 1033 704 l 1039 689 l 1043 669 q 1053 619 1043 639 l 1064 679 q 1088 713 1069 710 l 1104 715 l 1124 717 m 250 775 l 201 732 l -21 732 l -21 775 l 250 775 m 931 76 l 465 -156 l 457 -118 l 561 -75 l 561 -67 l 450 -89 l 443 -35 l 924 104 l 931 76 z "},"":{"ha":979,"x_min":-10,"x_max":1000,"o":"m 993 732 l -10 732 l -10 775 l 993 775 l 993 732 m 1000 117 l 957 83 l 938 74 q 924 81 928 78 l 897 124 l 882 150 l 876 146 l 878 111 q 890 74 881 94 l 865 61 l 847 57 l 840 58 l 835 67 q 824 101 833 76 l 815 132 l 807 161 l 794 210 l 792 229 l 788 249 l 783 269 l 767 364 q 728 436 756 429 q 663 343 686 436 l 601 101 q 600 90 603 96 l 588 88 l 553 89 l 543 94 l 536 115 l 533 149 l 533 199 l 525 200 l 511 75 l 463 75 l 463 565 l 378 565 q 196 419 240 536 q 182 346 182 383 q 267 222 182 260 q 321 213 296 213 q 274 144 294 144 q 242 153 265 144 l 190 179 l 182 174 q 253 117 201 133 l 221 94 q 196 88 213 90 q 53 239 96 124 q 43 311 43 281 q 110 467 43 396 q 281 564 178 538 l 43 565 l 43 621 l 463 621 l 463 690 l 464 699 q 476 703 468 703 l 504 704 q 511 699 510 701 l 517 686 l 525 638 l 533 597 l 539 607 l 542 628 l 546 665 l 551 697 q 560 711 553 708 l 569 713 l 581 715 l 586 715 l 592 717 l 597 717 l 601 279 q 663 456 618 374 q 797 564 721 564 q 904 363 861 564 l 926 258 q 1000 117 947 163 z "},"":{"ha":1083,"x_min":-14,"x_max":1097,"o":"m 1097 732 l -14 732 l -14 775 l 1097 775 l 1097 732 m 1078 115 l 1040 86 l 1025 76 l 1015 74 q 1001 81 1006 78 l 986 106 l 976 121 l 958 150 l 953 146 q 956 108 953 121 l 967 74 l 943 61 l 925 57 l 918 58 l 914 67 q 903 101 913 71 l 893 132 l 885 160 l 878 192 l 874 208 l 871 228 l 867 247 l 863 269 l 849 335 l 844 364 q 806 436 835 429 q 740 343 763 436 l 708 210 l 681 101 l 676 96 l 672 92 l 668 89 l 639 89 l 629 94 l 621 117 l 614 140 l 610 158 l 603 126 l 601 110 l 593 82 q 582 74 589 74 l 540 75 l 540 375 q 420 186 499 257 q 246 115 342 115 q 107 178 164 115 q 50 325 50 240 l 50 351 q 110 510 50 418 q 154 565 129 539 q 386 675 260 675 q 504 593 454 675 q 533 535 521 567 l 497 508 q 449 564 497 532 l 458 531 l 463 479 l 414 451 q 399 506 410 482 q 315 592 376 582 q 218 544 260 592 q 165 426 176 496 q 163 382 163 408 q 194 271 163 318 q 274 226 226 232 q 443 307 368 226 q 540 507 518 388 l 542 699 q 554 703 550 703 l 588 704 q 596 693 594 699 l 601 668 l 606 639 l 610 619 l 617 621 l 621 644 l 625 671 l 633 699 q 644 711 636 710 l 681 718 l 681 279 q 740 456 699 378 q 876 564 799 564 q 939 500 903 564 l 967 428 q 988 339 978 400 q 1078 115 1017 167 m 529 131 l 64 -101 l 56 -64 l 160 -21 l 160 -12 l 49 -35 l 42 19 l 522 158 l 529 131 z "},"":{"ha":1028,"x_min":-42,"x_max":1042,"o":"m 1042 732 l 317 732 l 339 775 l 1042 775 l 1042 732 m 958 485 l 944 453 l 922 390 l 914 369 l 908 363 l 904 368 l 903 374 q 888 411 896 400 q 808 461 868 450 q 771 464 793 464 q 750 457 761 464 l 731 436 q 710 401 719 425 l 689 354 q 656 243 671 313 l 625 101 q 618 90 621 93 l 597 88 l 563 89 l 551 97 l 544 128 l 539 165 l 535 199 l 526 200 l 514 75 l 458 75 l 458 326 q 397 213 444 261 q 286 153 350 164 q 249 150 271 150 q 90 256 151 150 q 39 450 39 344 q 101 767 39 656 l 146 776 l 169 779 q 139 675 135 724 l 140 657 q 143 640 142 647 q 219 779 176 757 l 251 792 l 297 801 q 192 450 192 674 q 215 317 192 381 q 303 226 246 233 q 439 379 390 226 q 458 479 449 410 l 458 697 l 464 703 l 500 704 q 508 697 507 700 l 514 685 l 519 635 l 526 592 l 535 593 l 538 619 l 540 660 q 543 689 542 685 q 560 711 547 706 l 578 715 l 597 717 l 597 228 q 661 438 614 336 q 807 578 726 578 l 829 578 l 846 572 l 889 560 q 958 485 949 542 m 44 775 l 31 732 l -42 732 l -42 775 l 44 775 z "},"":{"ha":326,"x_min":-312,"x_max":613,"o":"m 613 1207 l 578 1172 l 493 1208 l 486 1200 l 571 1144 l 536 1110 q 368 1193 456 1193 q 306 1172 336 1193 q 264 1122 275 1151 q 257 1081 257 1104 q 283 1017 257 1046 q 346 978 308 989 q 403 971 369 971 l 326 903 q 263 933 294 907 q 218 989 231 958 l 206 1018 q 196 1081 196 1057 q 228 1176 196 1133 q 311 1238 261 1219 q 383 1249 342 1249 l 403 1249 q 613 1207 547 1249 m 463 1065 q 457 1046 463 1057 l 444 1029 q 406 1013 428 1013 l 388 1015 q 374 1026 379 1019 l 365 1042 l 363 1061 q 365 1081 363 1074 l 378 1096 l 393 1106 q 413 1110 399 1110 q 463 1065 463 1111 m 340 732 l -14 732 l -14 775 l 190 775 l 176 785 l 147 814 l 133 832 l 106 869 l 79 913 q 15 994 49 963 q -10 1015 7 1003 q -117 1053 -58 1053 q -199 994 -172 1053 q -207 963 -204 982 q -174 877 -207 911 q -89 843 -140 843 l -107 833 l -126 822 l -137 817 l -144 815 l -162 822 l -201 843 q -187 815 -197 828 l -167 801 l -211 781 q -285 835 -254 793 q -306 876 -292 844 q -312 921 -312 900 q -273 1026 -312 979 q -165 1096 -233 1074 q -75 1110 -126 1108 q 33 1081 -14 1111 q 111 1025 69 1065 q 136 997 121 1014 l 189 940 q 242 899 208 919 q 338 864 297 864 q 281 815 322 815 q 249 826 269 815 l 199 864 l 190 865 q 247 793 193 833 l 213 775 l 340 775 l 340 732 m 247 717 l 244 94 q 239 89 242 89 l 232 88 l 199 89 l 189 92 l 182 107 l 178 143 l 176 207 l 169 208 l 156 75 l 107 75 l 107 697 l 114 704 l 150 704 q 161 694 158 699 l 169 672 l 174 639 l 176 597 l 185 599 l 188 624 l 190 663 q 194 692 192 683 q 210 711 199 708 l 228 715 l 247 717 z "},"":{"ha":0,"x_min":-711,"x_max":8,"o":"m 8 -356 l -7 -379 q -22 -397 -14 -390 l -36 -406 l -46 -406 q -158 -364 -108 -406 l -165 -369 q -68 -435 -126 -418 l -79 -446 l -90 -454 l -101 -460 l -111 -462 q -247 -376 -139 -462 l -335 -307 q -544 -189 -483 -189 l -579 -193 q -626 -225 -610 -200 q -635 -251 -632 -233 q -589 -303 -635 -290 l -558 -307 q -439 -274 -481 -307 l -461 -350 l -475 -354 l -507 -356 l -560 -356 l -560 -364 q -532 -378 -550 -372 l -496 -383 q -558 -426 -508 -426 q -666 -384 -621 -426 q -711 -279 -711 -342 q -644 -160 -711 -208 q -487 -111 -578 -112 q -262 -225 -404 -110 q 8 -356 -101 -356 z "}}}
